<svg width="20" height="11" viewBox="0 0 20 11" fill="none" xmlns="http://www.w3.org/2000/svg">
<g id="Layer_1" clip-path="url(#clip0_353_5592)">
<path id="Vector" d="M0.950928 8.35938C1.5425 9.69441 2.87623 10.6255 4.42752 10.6255H17.9651C18.7438 10.6255 19.3749 9.99254 19.3749 9.21185V8.35938H0.950928Z" fill="#EF6038"/>
<path id="Vector_2" d="M6.54464 3.85001L5.99863 2.35598C5.84675 1.94041 5.40323 1.73297 5.00799 1.89266L4.70277 2.01598C4.30753 2.17567 4.11025 2.64202 4.26212 3.05759L4.80813 4.55162C4.96001 4.96719 5.40353 5.17463 5.79877 5.01493L6.10399 4.89161C6.49923 4.73192 6.69651 4.26558 6.54464 3.85001Z" fill="#EF6038"/>
<path id="Vector_3" d="M9.79583 2.3569L9.29013 0.973167C9.13826 0.557593 8.69473 0.350158 8.29949 0.509848L7.99427 0.633169C7.59903 0.79286 7.40175 1.2592 7.55363 1.67478L8.05933 3.05852C8.2112 3.47409 8.65473 3.68152 9.04997 3.52183L9.35519 3.39851C9.75043 3.23882 9.94771 2.77248 9.79583 2.3569Z" fill="#EF6038"/>
<path id="Vector_4" d="M17.9652 0H12.1056C11.6878 0 11.2736 0.077279 10.8836 0.228402L9.5221 0.755273L10.1476 2.46709C10.3234 2.94794 10.0951 3.48751 9.63774 3.6723L9.06675 3.9031C8.60943 4.08789 8.09625 3.84781 7.92051 3.36696L7.28256 1.62183L6.18696 2.046L6.88763 3.96355C7.06337 4.4444 6.83504 4.98398 6.37772 5.16876L5.82274 5.39304C5.36542 5.57783 4.85224 5.33774 4.6765 4.8569L3.96374 2.90638L3.05858 3.25671C1.5919 3.82376 0.625 5.23711 0.625 6.81291C0.625 7.14161 0.666485 7.46034 0.744556 7.76465H19.375V1.41369C19.375 0.633001 18.7436 0 17.9652 0Z" fill="#EF6038"/>
</g>
<defs>
<clipPath id="clip0_353_5592">
<rect width="18.75" height="10.625" fill="white" transform="translate(0.625)"/>
</clipPath>
</defs>
</svg>
