<svg width="36" height="36" viewBox="0 0 36 36" fill="none" xmlns="http://www.w3.org/2000/svg">
<g id="CaretLeft">
<path id="Vector" d="M23.2958 28.4547C23.4004 28.5592 23.4833 28.6833 23.5399 28.8199C23.5964 28.9564 23.6255 29.1028 23.6255 29.2506C23.6255 29.3984 23.5964 29.5448 23.5399 29.6814C23.4833 29.818 23.4004 29.942 23.2958 30.0466C23.1913 30.1511 23.0672 30.234 22.9307 30.2906C22.7941 30.3471 22.6477 30.3763 22.4999 30.3763C22.3521 30.3763 22.2057 30.3471 22.0691 30.2906C21.9326 30.234 21.8085 30.1511 21.704 30.0466L10.454 18.7966C10.3494 18.6921 10.2664 18.568 10.2098 18.4314C10.1532 18.2949 10.124 18.1485 10.124 18.0006C10.124 17.8528 10.1532 17.7064 10.2098 17.5698C10.2664 17.4332 10.3494 17.3092 10.454 17.2047L21.704 5.95469C21.9151 5.74359 22.2014 5.625 22.4999 5.625C22.7984 5.625 23.0848 5.74359 23.2958 5.95469C23.5069 6.16578 23.6255 6.45209 23.6255 6.75063C23.6255 7.04916 23.5069 7.33547 23.2958 7.54656L12.8404 18.0006L23.2958 28.4547Z" fill="#262829"/>
</g>
</svg>
