<svg width="61" height="57" viewBox="0 0 61 57" fill="none" xmlns="http://www.w3.org/2000/svg">
<g id="Layer_1" clip-path="url(#clip0_374_2600)">
<path id="Vector" d="M54.9366 0.917893L54.327 0.434156C53.8468 0.0530708 53.1634 0.153064 52.8006 0.657497L28.9908 33.7633C28.628 34.2678 28.7232 34.9856 29.2034 35.3667L29.813 35.8504C30.2932 36.2315 30.9766 36.1315 31.3394 35.6271L55.1492 2.52126C55.512 2.01683 55.4168 1.29898 54.9366 0.917893Z" fill="#262829"/>
<path id="Vector_2" d="M60.6451 5.61924L60.0822 5.07667C59.6388 4.64924 58.9494 4.68035 58.5425 5.14616L31.8368 35.7171C31.4299 36.1829 31.4595 36.907 31.903 37.3345L32.4659 37.877C32.9093 38.3045 33.5987 38.2734 34.0056 37.8076L60.7113 7.2366C61.1182 6.7708 61.0886 6.04668 60.6451 5.61924Z" fill="#262829"/>
<path id="Vector_3" d="M55.4909 26.5996C57.4788 26.5996 59.0159 28.4323 58.7659 30.5036C56.9397 45.674 44.6095 57.4065 29.6708 57.4065C14.732 57.4065 2.40413 45.6752 0.576799 30.5036C0.327878 28.4323 1.86385 26.5996 3.85178 26.5996H55.4909Z" fill="url(#paint0_linear_374_2600)"/>
</g>
<defs>
<linearGradient id="paint0_linear_374_2600" x1="0.550293" y1="26.5996" x2="63.7403" y2="47.7604" gradientUnits="userSpaceOnUse">
<stop stop-color="#EF6038"/>
<stop offset="1" stop-color="#E3461A"/>
</linearGradient>
<clipPath id="clip0_374_2600">
<rect width="60.45" height="56" fill="white" transform="translate(0.550293 0.199219)"/>
</clipPath>
</defs>
</svg>
