<svg width="40" height="40" viewBox="0 0 40 40" fill="none" xmlns="http://www.w3.org/2000/svg">
<circle cx="20" cy="20" r="19.5" fill="white" stroke="#E3E5E7"/>
<g clip-path="url(#clip0_374_2243)">
<path d="M16.8759 30.8332C16.8759 28.6478 18.7049 26.8763 20.9613 26.8763C21.7886 26.8763 22.5579 27.1154 23.2012 27.5246C23.9366 26.8335 24.9395 26.4073 26.0453 26.4073C27.2334 26.4073 28.3028 26.8991 29.0491 27.6829C30.567 25.6411 31.4622 23.1356 31.4622 20.4278C31.4622 13.5644 25.7172 8 18.6311 8C11.5449 8 5.79999 13.5644 5.79999 20.4278C5.79999 26.895 10.8997 32.2073 17.417 32.8C17.0732 32.2202 16.8759 31.5496 16.8759 30.8332Z" fill="url(#paint0_linear_374_2243)"/>
<path d="M31.6667 23.4901C31.6667 24.0883 32.1445 24.5454 32.6557 24.4224C34.535 23.9709 35.9334 22.2618 35.9334 20.2213C35.9334 18.1808 34.5356 16.4717 32.6557 16.0201C32.1445 15.8971 31.6667 16.3543 31.6667 16.9525V23.4894V23.4901Z" fill="#262829"/>
<path d="M33.5117 23.4766C33.5117 23.4766 34.839 30.3072 22.7148 30.3072" stroke="#262829" stroke-miterlimit="10"/>
<path d="M22.6 31.83C23.4837 31.83 24.2 31.1213 24.2 30.247C24.2 29.3728 23.4837 28.6641 22.6 28.6641C21.7163 28.6641 21 29.3728 21 30.247C21 31.1213 21.7163 31.83 22.6 31.83Z" fill="#262829"/>
<path d="M20.6741 23.0456V16H21.783V23.0456H20.6741Z" fill="white"/>
<path d="M13.8 23.0456L16.1326 16H17.4136L19.7462 23.0456H18.5703L17.4327 19.2216C17.318 18.8393 17.2065 18.4537 17.0981 18.0649C16.9898 17.6698 16.8814 17.2746 16.7731 16.8795H16.7348C16.6329 17.281 16.5245 17.6761 16.4098 18.0649C16.3015 18.4537 16.1899 18.8393 16.0752 19.2216L14.9376 23.0456H13.8ZM15.1192 21.0476V20.1681H18.4078V21.0476H15.1192Z" fill="white"/>
</g>
<defs>
<linearGradient id="paint0_linear_374_2243" x1="18.6311" y1="8" x2="27.8" y2="23.2" gradientUnits="userSpaceOnUse">
<stop stop-color="#EF6038"/>
<stop offset="1" stop-color="#E3461A"/>
</linearGradient>
<clipPath id="clip0_374_2243">
<rect width="30.4" height="24.8" fill="white" transform="translate(5.79999 8)"/>
</clipPath>
</defs>
</svg>
