<svg width="42" height="35" viewBox="0 0 42 35" fill="none" xmlns="http://www.w3.org/2000/svg">
<g id="Layer_1" clip-path="url(#clip0_323_3743)">
<path id="Vector" d="M15.3295 31.8957C15.3295 28.8907 17.8444 26.4549 20.9468 26.4549C22.0845 26.4549 23.1422 26.7837 24.0268 27.3463C25.038 26.396 26.4169 25.81 27.9374 25.81C29.571 25.81 31.0415 26.4863 32.0676 27.564C34.1548 24.7565 35.3856 21.3114 35.3856 17.5883C35.3856 8.15104 27.4863 0.5 17.7428 0.5C7.99939 0.5 0.100098 8.15104 0.100098 17.5883C0.100098 26.4806 7.11226 33.7851 16.0734 34.6C15.6008 33.8028 15.3295 32.8807 15.3295 31.8957Z" fill="url(#paint0_linear_323_3743)"/>
<g id="Group">
<path id="Vector_2" d="M35.6665 21.7989C35.6665 22.6214 36.3235 23.2499 37.0264 23.0809C39.6104 22.4599 41.5332 20.1099 41.5332 17.3043C41.5332 14.4986 39.6112 12.1486 37.0264 11.5276C36.3235 11.3586 35.6665 11.9871 35.6665 12.8096V21.7979V21.7989Z" fill="#EF6038"/>
<path id="Vector_3" d="M38.2036 21.7812C38.2036 21.7812 40.0286 31.1734 23.3579 31.1734" stroke="#EF6038" stroke-miterlimit="10"/>
<path id="Vector_4" d="M23.2 33.2673C24.415 33.2673 25.4 32.2928 25.4 31.0907C25.4 29.8886 24.415 28.9141 23.2 28.9141C21.985 28.9141 21 29.8886 21 31.0907C21 32.2928 21.985 33.2673 23.2 33.2673Z" fill="#EF6038"/>
</g>
<g id="AI">
<path id="Vector_5" d="M20.5518 21.1876V11.5H22.0765V21.1876H20.5518Z" fill="black"/>
<path id="Vector_6" d="M11.1001 21.1876L14.3074 11.5H16.0688L19.2761 21.1876H17.6593L16.0951 15.9298C15.9373 15.404 15.784 14.8738 15.635 14.3393C15.486 13.7959 15.3371 13.2526 15.1881 12.7093H15.1355C14.9953 13.2614 14.8463 13.8047 14.6886 14.3393C14.5396 14.8738 14.3863 15.404 14.2285 15.9298L12.6643 21.1876H11.1001ZM12.9141 18.4404V17.2311H17.4358V18.4404H12.9141Z" fill="black"/>
</g>
</g>
<defs>
<linearGradient id="paint0_linear_323_3743" x1="18" y1="2.5" x2="35" y2="24.5" gradientUnits="userSpaceOnUse">
<stop stop-color="white"/>
<stop offset="1" stop-color="#D8CDE3"/>
</linearGradient>
<clipPath id="clip0_323_3743">
<rect width="41.8" height="34.1" fill="white" transform="translate(0.100098 0.5)"/>
</clipPath>
</defs>
</svg>
