<svg width="38" height="31" viewBox="0 0 38 31" fill="none" xmlns="http://www.w3.org/2000/svg">
<g id="Layer_1" clip-path="url(#clip0_286_12358)">
<path id="Vector" d="M13.8449 28.5415C13.8449 25.8098 16.1312 23.5953 18.9516 23.5953C19.9858 23.5953 20.9474 23.8943 21.7516 24.4058C22.6708 23.5418 23.9244 23.0091 25.3066 23.0091C26.7917 23.0091 28.1285 23.6239 29.0614 24.6036C30.9588 22.0514 32.0777 18.9195 32.0777 15.5348C32.0777 6.95549 24.8966 0 16.0389 0C7.18117 0 0 6.95549 0 15.5348C0 23.6188 6.37469 30.2592 14.5212 31C14.0915 30.2753 13.8449 29.437 13.8449 28.5415Z" fill="url(#paint0_linear_286_12358)"/>
<g id="Group">
<path id="Vector_2" d="M32.3335 19.3626C32.3335 20.1103 32.9308 20.6818 33.5698 20.5281C35.9189 19.9636 37.6668 17.8272 37.6668 15.2766C37.6668 12.726 35.9196 10.5896 33.5698 10.0251C32.9308 9.87142 32.3335 10.4429 32.3335 11.1906V19.3617V19.3626Z" fill="#262829"/>
<path id="Vector_3" d="M34.6397 19.3457C34.6397 19.3457 36.2988 27.884 21.1436 27.884" stroke="#262829" stroke-miterlimit="10"/>
<path id="Vector_4" d="M21 29.7875C22.1046 29.7875 23 28.9016 23 27.8088C23 26.716 22.1046 25.8301 21 25.8301C19.8954 25.8301 19 26.716 19 27.8088C19 28.9016 19.8954 29.7875 21 29.7875Z" fill="#262829"/>
</g>
<g id="AI">
<path id="Vector_5" d="M18.5928 18.8069V10H19.9789V18.8069H18.5928Z" fill="white"/>
<path id="Vector_6" d="M10 18.8069L12.9157 10H14.517L17.4327 18.8069H15.9629L14.5409 14.0271C14.3975 13.5491 14.2581 13.0671 14.1227 12.5811C13.9872 12.0872 13.8518 11.5933 13.7164 11.0994H13.6686C13.5411 11.6013 13.4057 12.0952 13.2623 12.5811C13.1268 13.0671 12.9874 13.5491 12.844 14.0271L11.422 18.8069H10ZM11.6491 16.3094V15.2101H15.7598V16.3094H11.6491Z" fill="white"/>
</g>
</g>
<defs>
<linearGradient id="paint0_linear_286_12358" x1="16.0389" y1="-7.06886e-07" x2="27.5" y2="19" gradientUnits="userSpaceOnUse">
<stop stop-color="#EF6038"/>
<stop offset="1" stop-color="#E3461A"/>
</linearGradient>
<clipPath id="clip0_286_12358">
<rect width="38" height="31" fill="white"/>
</clipPath>
</defs>
</svg>
