<svg width="24" height="24" viewBox="0 0 24 24" fill="none" xmlns="http://www.w3.org/2000/svg">
<g id="Check">
<path id="Vector" d="M21.5301 7.28104L9.53007 19.281C9.46041 19.3508 9.37769 19.4061 9.28665 19.4438C9.1956 19.4816 9.098 19.501 8.99944 19.501C8.90088 19.501 8.80328 19.4816 8.71224 19.4438C8.62119 19.4061 8.53847 19.3508 8.46881 19.281L3.21882 14.031C3.07808 13.8903 2.99902 13.6994 2.99902 13.5004C2.99902 13.3014 3.07808 13.1105 3.21882 12.9698C3.35955 12.8291 3.55042 12.75 3.74944 12.75C3.94846 12.75 4.13933 12.8291 4.28007 12.9698L8.99944 17.6901L20.4688 6.21979C20.6095 6.07906 20.8004 6 20.9994 6C21.1985 6 21.3893 6.07906 21.5301 6.21979C21.6708 6.36052 21.7499 6.55139 21.7499 6.75042C21.7499 6.94944 21.6708 7.14031 21.5301 7.28104Z" fill="white"/>
</g>
</svg>
