<svg width="28" height="28" viewBox="0 0 28 28" fill="none" xmlns="http://www.w3.org/2000/svg">
<circle cx="14" cy="14" r="14" fill="#262829"/>
<path d="M20.3535 10.854L12.3535 18.854C12.3071 18.9005 12.252 18.9374 12.1913 18.9626C12.1306 18.9877 12.0655 19.0007 11.9998 19.0007C11.9341 19.0007 11.869 18.9877 11.8083 18.9626C11.7476 18.9374 11.6925 18.9005 11.646 18.854L8.14604 15.354C8.05222 15.2602 7.99951 15.133 7.99951 15.0003C7.99951 14.8676 8.05222 14.7403 8.14604 14.6465C8.23986 14.5527 8.36711 14.5 8.49979 14.5C8.63247 14.5 8.75972 14.5527 8.85354 14.6465L11.9998 17.7934L19.646 10.1465C19.7399 10.0527 19.8671 10 19.9998 10C20.1325 10 20.2597 10.0527 20.3535 10.1465C20.4474 10.2403 20.5001 10.3676 20.5001 10.5003C20.5001 10.633 20.4474 10.7602 20.3535 10.854Z" fill="white"/>
</svg>
