<svg width="148" height="113" viewBox="0 0 148 113" fill="none" xmlns="http://www.w3.org/2000/svg">
<g filter="url(#filter0_f_290_14400)">
<ellipse cx="74" cy="98.5" rx="64" ry="4.5" fill="#C8411B"/>
</g>
<g clip-path="url(#clip0_290_14400)">
<path fill-rule="evenodd" clip-rule="evenodd" d="M125.397 26.4259C125.145 27.936 123.744 28.96 122.268 28.7129L98.0749 24.6611C98.0713 24.6872 98.0673 24.7133 98.0629 24.7393L95.5116 39.9737L90.1693 39.079L92.7207 23.8447C92.725 23.8186 92.7297 23.7926 92.7348 23.7668L68.5404 19.7149C67.0652 19.4679 66.0743 18.0433 66.3272 16.5332C66.5801 15.023 67.9811 13.9991 69.4563 14.2462L123.184 23.2442C124.659 23.4912 125.65 24.9157 125.397 26.4259Z" fill="url(#paint0_linear_290_14400)"/>
<path d="M124.867 84.4068C121.675 103.469 106.86 97.2937 83.8121 93.4338C62.5682 89.876 44.9291 89.4921 47.9383 71.5233C52.1006 46.6703 72.695 29.4074 93.9389 32.9652C115.183 36.523 129.029 59.5538 124.867 84.4068Z" fill="url(#paint1_linear_290_14400)"/>
<path d="M106.047 70.1907C104.355 80.2958 94.9871 87.1281 85.1435 85.4796C75.2998 83.831 68.669 74.3193 70.3613 64.2142C72.0537 54.1091 81.4217 47.2767 91.2653 48.9253C101.109 50.5738 107.74 60.0855 106.047 70.1907Z" fill="white" stroke="#DEDAED"/>
<path d="M91.7484 52.0571C91.8091 50.8704 90.1182 50.5872 89.7889 51.729L85.2484 67.4711C85.0827 68.0453 85.4546 68.6357 86.044 68.7345L89.7484 69.3548C90.3379 69.4536 90.8818 69.0165 90.9123 68.4196L91.7484 52.0571Z" fill="#262829"/>
</g>
<path d="M41.455 29.1352L37.2883 30.5435L29.5087 8.8515L34.458 7.17865L41.455 29.1352ZM42.4351 38.9379C41.8993 39.119 41.3535 39.1542 40.7976 39.0436C40.2511 38.9141 39.7605 38.6714 39.326 38.3155C38.9008 37.9407 38.6023 37.476 38.4306 36.9213C38.2353 36.3902 38.1954 35.8538 38.3108 35.312C38.4356 34.7514 38.6807 34.2679 39.0461 33.8616C39.4209 33.4364 39.8762 33.1332 40.412 32.9521C40.9478 32.771 41.4866 32.7382 42.0284 32.8536C42.5795 32.9501 43.0677 33.1858 43.4928 33.5605C43.918 33.9353 44.2258 34.3811 44.4163 34.8981C44.5881 35.4528 44.6186 36.0081 44.508 36.564C44.3926 37.1057 44.1499 37.5963 43.7799 38.0356C43.4192 38.456 42.971 38.7568 42.4351 38.9379Z" fill="white"/>
<path d="M52.0463 36.7935C52.0577 35.4332 52.2009 34.332 52.4758 33.4899C52.7507 32.637 53.1402 31.9568 53.6442 31.4494C54.1482 30.942 54.824 30.4399 55.6717 29.9433C56.1872 29.6518 56.6339 29.3225 57.0119 28.9555C57.4014 28.5776 57.6992 28.1619 57.9054 27.7085C58.1116 27.2551 58.2147 26.753 58.2147 26.2024C58.2147 25.5547 58.0543 24.9825 57.7336 24.4858C57.4128 23.9784 56.9661 23.5897 56.3933 23.3198C55.8206 23.0391 55.1849 22.9042 54.4861 22.915C53.8561 22.9042 53.2605 23.0283 52.6992 23.2874C52.1494 23.5358 51.6854 23.9244 51.3074 24.4534C50.9409 24.9717 50.7347 25.6194 50.6889 26.3968H46.9775C47.0234 25.058 47.3785 23.9082 48.0428 22.9474C48.7187 21.9757 49.6179 21.2416 50.7404 20.7449C51.863 20.2483 53.1173 20 54.5033 20C55.981 20 57.2868 20.2591 58.4208 20.7773C59.5549 21.2955 60.4311 22.0297 61.0497 22.9798C61.6683 23.919 61.9775 25.004 61.9775 26.2348C61.9775 27.4872 61.674 28.5668 61.0669 29.4737C60.4712 30.3806 59.6007 31.1579 58.4552 31.8057C57.745 32.2159 57.1837 32.637 56.7714 33.0688C56.3704 33.4899 56.0669 33.9973 55.8607 34.5911C55.6545 35.1849 55.5457 35.919 55.5342 36.7935V37.0364H52.0463V36.7935ZM53.9019 44C53.4552 44 53.0428 43.8974 52.6648 43.6923C52.2983 43.4764 52.0062 43.1957 51.7885 42.8502C51.5709 42.4939 51.4678 42.1053 51.4793 41.6842C51.4678 41.274 51.5709 40.8961 51.7885 40.5506C52.0062 40.1943 52.2983 39.919 52.6648 39.7247C53.0428 39.5196 53.4552 39.417 53.9019 39.417C54.3372 39.417 54.7381 39.5196 55.1047 39.7247C55.4827 39.919 55.7805 40.1943 55.9982 40.5506C56.2158 40.9069 56.3246 41.2847 56.3246 41.6842C56.3246 42.1053 56.2158 42.4939 55.9982 42.8502C55.7805 43.1957 55.4827 43.4764 55.1047 43.6923C54.7381 43.8974 54.3372 44 53.9019 44Z" fill="white"/>
<defs>
<filter id="filter0_f_290_14400" x="0" y="84" width="148" height="29" filterUnits="userSpaceOnUse" color-interpolation-filters="sRGB">
<feFlood flood-opacity="0" result="BackgroundImageFix"/>
<feBlend mode="normal" in="SourceGraphic" in2="BackgroundImageFix" result="shape"/>
<feGaussianBlur stdDeviation="5" result="effect1_foregroundBlur_290_14400"/>
</filter>
<linearGradient id="paint0_linear_290_14400" x1="95" y1="16" x2="91.5" y2="38.5" gradientUnits="userSpaceOnUse">
<stop stop-color="#313033"/>
<stop offset="1" stop-color="#88858F"/>
</linearGradient>
<linearGradient id="paint1_linear_290_14400" x1="88.2508" y1="36.6584" x2="120" y2="87.0019" gradientUnits="userSpaceOnUse">
<stop stop-color="#FAF8FE"/>
<stop offset="1" stop-color="#D3C8E1"/>
</linearGradient>
<clipPath id="clip0_290_14400">
<rect width="78" height="76" fill="white" transform="translate(57.856 12.3027) rotate(9.50727)"/>
</clipPath>
</defs>
</svg>
