<svg width="19" height="16" viewBox="0 0 19 16" fill="none" xmlns="http://www.w3.org/2000/svg">
<g id="Layer_1" clip-path="url(#clip0_353_1230)">
<path id="Vector" d="M17.671 7.86523C18.1626 7.86523 18.5037 8.40008 18.3286 8.89928C17.4337 11.4551 13.7416 15.501 9.31605 15.501C4.89048 15.501 1.17515 11.4679 0.294825 8.89623C0.123753 8.39668 0.463568 7.86523 0.953819 7.86523H17.6713H17.671Z" fill="#EF6038"/>
<path id="Vector_2" d="M12.1884 5.42081C13.521 5.42081 14.6014 4.31925 14.6014 2.96041C14.6014 1.60156 13.521 0.5 12.1884 0.5C10.8557 0.5 9.77539 1.60156 9.77539 2.96041C9.77539 4.31925 10.8557 5.42081 12.1884 5.42081Z" fill="#EF6038"/>
<path id="Vector_3" d="M6.56359 6.91489C7.38157 6.91489 8.04467 6.23876 8.04467 5.40471C8.04467 4.57066 7.38157 3.89453 6.56359 3.89453C5.74562 3.89453 5.08252 4.57066 5.08252 5.40471C5.08252 6.23876 5.74562 6.91489 6.56359 6.91489Z" fill="#EF6038"/>
</g>
<defs>
<clipPath id="clip0_353_1230">
<rect width="18.125" height="15" fill="white" transform="translate(0.25 0.5)"/>
</clipPath>
</defs>
</svg>
