<svg width="36" height="36" viewBox="0 0 36 36" fill="none" xmlns="http://www.w3.org/2000/svg">
<g id="SignOut">
<path id="Vector" d="M16.875 30.375C16.875 30.6734 16.7565 30.9595 16.5455 31.1705C16.3345 31.3815 16.0484 31.5 15.75 31.5H6.75C6.45163 31.5 6.16548 31.3815 5.95451 31.1705C5.74353 30.9595 5.625 30.6734 5.625 30.375V5.625C5.625 5.32663 5.74353 5.04048 5.95451 4.82951C6.16548 4.61853 6.45163 4.5 6.75 4.5H15.75C16.0484 4.5 16.3345 4.61853 16.5455 4.82951C16.7565 5.04048 16.875 5.32663 16.875 5.625C16.875 5.92337 16.7565 6.20952 16.5455 6.42049C16.3345 6.63147 16.0484 6.75 15.75 6.75H7.875V29.25H15.75C16.0484 29.25 16.3345 29.3685 16.5455 29.5795C16.7565 29.7905 16.875 30.0766 16.875 30.375ZM32.2959 17.2041L26.6709 11.5791C26.5136 11.4215 26.3131 11.3143 26.0947 11.2708C25.8764 11.2273 25.65 11.2496 25.4444 11.3348C25.2387 11.42 25.0629 11.5644 24.9393 11.7495C24.8157 11.9347 24.7498 12.1524 24.75 12.375V16.875H15.75C15.4516 16.875 15.1655 16.9935 14.9545 17.2045C14.7435 17.4155 14.625 17.7016 14.625 18C14.625 18.2984 14.7435 18.5845 14.9545 18.7955C15.1655 19.0065 15.4516 19.125 15.75 19.125H24.75V23.625C24.7498 23.8476 24.8157 24.0653 24.9393 24.2505C25.0629 24.4356 25.2387 24.58 25.4444 24.6652C25.65 24.7504 25.8764 24.7727 26.0947 24.7292C26.3131 24.6857 26.5136 24.5785 26.6709 24.4209L32.2959 18.7959C32.4005 18.6915 32.4835 18.5674 32.5401 18.4308C32.5967 18.2942 32.6259 18.1478 32.6259 18C32.6259 17.8522 32.5967 17.7058 32.5401 17.5692C32.4835 17.4326 32.4005 17.3085 32.2959 17.2041Z" fill="#BABEC0"/>
</g>
</svg>
