<svg width="39" height="35" viewBox="0 0 39 35" fill="none" xmlns="http://www.w3.org/2000/svg">
<g id="Layer_1" clip-path="url(#clip0_286_12329)">
<path id="Vector" d="M35.088 0.448439L34.6948 0.146103C34.3849 -0.0920749 33.944 -0.029579 33.71 0.285692L18.3488 20.9768C18.1148 21.2921 18.1762 21.7408 18.486 21.9789L18.8793 22.2813C19.1891 22.5195 19.63 22.457 19.864 22.1417L35.2252 1.45055C35.4593 1.13528 35.3979 0.686617 35.088 0.448439Z" fill="#262829"/>
<path id="Vector_2" d="M38.7708 3.38727L38.4077 3.04816C38.1216 2.78102 37.6768 2.80046 37.4143 3.09159L20.1848 22.1984C19.9223 22.4896 19.9414 22.9421 20.2275 23.2093L20.5907 23.5484C20.8768 23.8155 21.3215 23.7961 21.584 23.505L38.8135 4.39812C39.076 4.10699 39.0569 3.65442 38.7708 3.38727Z" fill="#262829"/>
<path id="Vector_3" d="M35.4455 16.5C36.7281 16.5 37.7198 17.6455 37.5584 18.94C36.3802 28.4215 28.4253 35.7543 18.7874 35.7543C9.14952 35.7543 1.19603 28.4222 0.017101 18.94C-0.143493 17.6455 0.847455 16.5 2.12999 16.5H35.4455Z" fill="url(#paint0_linear_286_12329)"/>
</g>
<defs>
<linearGradient id="paint0_linear_286_12329" x1="0" y1="16.5" x2="40.5" y2="30.5" gradientUnits="userSpaceOnUse">
<stop stop-color="#EF6038"/>
<stop offset="1" stop-color="#E3461A"/>
</linearGradient>
<clipPath id="clip0_286_12329">
<rect width="39" height="35" fill="white"/>
</clipPath>
</defs>
</svg>
