<svg width="39" height="38" viewBox="0 0 39 38" fill="none" xmlns="http://www.w3.org/2000/svg">
<g id="Layer_1" clip-path="url(#clip0_286_12335)">
<path id="Union" fill-rule="evenodd" clip-rule="evenodd" d="M34.4733 1.38623C34.4733 2.15182 33.867 2.77245 33.1191 2.77245H20.8539C20.8543 2.78559 20.8545 2.79878 20.8545 2.81201V10.5353H18.1461V2.81201C18.1461 2.79878 18.1463 2.78559 18.1467 2.77245H5.88102C5.13314 2.77245 4.52686 2.15182 4.52686 1.38623C4.52686 0.620634 5.13314 0 5.88102 0H33.1191C33.867 0 34.4733 0.620634 34.4733 1.38623Z" fill="#404345"/>
<path id="Vector" d="M39 30.0223C39 39.6863 31.1845 37.8644 19.5 37.8644C8.73012 37.8644 0 39.1318 0 30.0223C0 17.4227 8.73012 7.20898 19.5 7.20898C30.2699 7.20898 39 17.4227 39 30.0223Z" fill="url(#paint0_linear_286_12335)"/>
<path id="Vector_2" d="M19.4999 34.0825C24.6338 34.0825 28.7957 29.8221 28.7957 24.5666C28.7957 19.3112 24.6338 15.0508 19.4999 15.0508C14.366 15.0508 10.2041 19.3112 10.2041 24.5666C10.2041 29.8221 14.366 34.0825 19.4999 34.0825Z" fill="white"/>
<path id="Vector_3" d="M20.4934 21.1095C20.3572 19.929 18.6428 19.929 18.5066 21.1095L18.1286 24.3854C18.0601 24.9791 18.5243 25.5 19.122 25.5H19.878C20.4757 25.5 20.9399 24.9791 20.8714 24.3854L20.4934 21.1095Z" fill="#262829"/>
</g>
<defs>
<linearGradient id="paint0_linear_286_12335" x1="17" y1="9.5" x2="35" y2="28.5" gradientUnits="userSpaceOnUse">
<stop stop-color="#EF6038"/>
<stop offset="1" stop-color="#E3461A"/>
</linearGradient>
<clipPath id="clip0_286_12335">
<rect width="39" height="38" fill="white"/>
</clipPath>
</defs>
</svg>
