<svg width="38" height="36" viewBox="0 0 38 36" fill="none" xmlns="http://www.w3.org/2000/svg">
<g id="Layer_1" clip-path="url(#clip0_286_12351)">
<path id="Vector" d="M36.7004 11.1531C35.9199 11.3029 35.1009 11.3283 34.2696 11.208C31.9273 10.8706 30.0051 9.46082 28.9256 7.5483C27.3499 9.07848 25.1074 9.88737 22.7651 9.55006C18.7561 8.97205 15.9756 5.25509 16.553 1.24749C16.5898 0.992866 16.639 0.743977 16.7004 0.5C8.66191 2.16526 2.61932 9.2848 2.61932 17.8158C2.61932 21.2577 3.60376 24.4687 5.30564 27.186C4.18689 28.3911 2.47927 29.9057 0.408839 30.6917C-0.1489 30.9029 -0.13252 31.7003 0.43259 31.8919C2.40474 32.5616 5.87649 33.2895 10.0583 32.2301C12.9502 34.2891 16.4883 35.5 20.3097 35.5C30.0796 35.5 38.0002 27.5822 38.0002 17.8158C38.0002 15.4587 37.5374 13.2097 36.7004 11.1531Z" fill="url(#paint0_linear_286_12351)"/>
<path id="Vector_2" d="M13.5526 19.78C14.2763 19.78 14.863 19.1936 14.863 18.4701C14.863 17.7466 14.2763 17.1602 13.5526 17.1602C12.8289 17.1602 12.2422 17.7466 12.2422 18.4701C12.2422 19.1936 12.8289 19.78 13.5526 19.78Z" fill="white"/>
<path id="Vector_3" d="M20.4325 19.78C21.1562 19.78 21.7429 19.1936 21.7429 18.4701C21.7429 17.7466 21.1562 17.1602 20.4325 17.1602C19.7088 17.1602 19.1221 17.7466 19.1221 18.4701C19.1221 19.1936 19.7088 19.78 20.4325 19.78Z" fill="white"/>
<path id="Vector_4" d="M27.3119 19.78C28.0356 19.78 28.6223 19.1936 28.6223 18.4701C28.6223 17.7466 28.0356 17.1602 27.3119 17.1602C26.5882 17.1602 26.0015 17.7466 26.0015 18.4701C26.0015 19.1936 26.5882 19.78 27.3119 19.78Z" fill="white"/>
</g>
<defs>
<linearGradient id="paint0_linear_286_12351" x1="18.9998" y1="0.499999" x2="38" y2="23.5" gradientUnits="userSpaceOnUse">
<stop stop-color="#EF6038"/>
<stop offset="1" stop-color="#E3461A"/>
</linearGradient>
<clipPath id="clip0_286_12351">
<rect width="38" height="35" fill="white" transform="translate(0 0.5)"/>
</clipPath>
</defs>
</svg>
