<svg width="24" height="24" viewBox="0 0 24 24" fill="none" xmlns="http://www.w3.org/2000/svg">
<g id="Check">
<path id="Vector" d="M21.5303 7.28104L9.53031 19.281C9.46066 19.3508 9.37794 19.4061 9.28689 19.4438C9.19584 19.4816 9.09825 19.501 8.99968 19.501C8.90112 19.501 8.80353 19.4816 8.71248 19.4438C8.62143 19.4061 8.53871 19.3508 8.46906 19.281L3.21906 14.031C3.07833 13.8903 2.99927 13.6994 2.99927 13.5004C2.99927 13.3014 3.07833 13.1105 3.21906 12.9698C3.35979 12.8291 3.55066 12.75 3.74968 12.75C3.94871 12.75 4.13958 12.8291 4.28031 12.9698L8.99968 17.6901L20.4691 6.21979C20.6098 6.07906 20.8007 6 20.9997 6C21.1987 6 21.3896 6.07906 21.5303 6.21979C21.671 6.36052 21.7501 6.55139 21.7501 6.75042C21.7501 6.94944 21.671 7.14031 21.5303 7.28104Z" fill="#BABEC0"/>
</g>
</svg>
