<svg width="30" height="30" viewBox="0 0 30 30" fill="none" xmlns="http://www.w3.org/2000/svg">
<g id="Link">
<path id="Vector" d="M27.4447 10.5813C27.4001 12.1287 26.7638 13.6001 25.6669 14.6924L21.8058 18.5557C21.2435 19.1212 20.5745 19.5694 19.8378 19.8746C19.101 20.1797 18.311 20.3357 17.5136 20.3335H17.508C16.697 20.3329 15.8942 20.1698 15.1473 19.8538C14.4003 19.5378 13.7242 19.0753 13.159 18.4936C12.5938 17.9119 12.1509 17.2228 11.8564 16.4671C11.562 15.7113 11.422 14.9043 11.4447 14.0935C11.4513 13.8578 11.5513 13.6343 11.7227 13.4723C11.8941 13.3103 12.1228 13.223 12.3586 13.2296C12.5943 13.2362 12.8178 13.3363 12.9798 13.5076C13.1418 13.679 13.2291 13.9078 13.2225 14.1435C13.2063 14.7168 13.3052 15.2874 13.5133 15.8218C13.7214 16.3562 14.0345 16.8435 14.4341 17.2548C14.8337 17.6661 15.3118 17.9932 15.8399 18.2166C16.3681 18.44 16.9357 18.5554 17.5091 18.5557C18.0729 18.5572 18.6313 18.4469 19.1522 18.2312C19.673 18.0155 20.1459 17.6987 20.5436 17.2991L24.4047 13.4379C25.2013 12.6313 25.6465 11.5422 25.6429 10.4085C25.6394 9.2748 25.1874 8.18854 24.3858 7.38688C23.5841 6.58522 22.4978 6.13329 21.3641 6.12974C20.2304 6.12619 19.1414 6.57132 18.3347 7.36795L17.1125 8.59017C16.9444 8.74983 16.7206 8.83753 16.4889 8.83456C16.2571 8.83159 16.0356 8.7382 15.8717 8.57428C15.7078 8.41037 15.6144 8.18891 15.6114 7.95712C15.6085 7.72533 15.6961 7.50156 15.8558 7.3335L17.078 6.11128C17.6419 5.5472 18.3114 5.09974 19.0483 4.79445C19.7851 4.48916 20.5749 4.33203 21.3725 4.33203C22.1701 4.33203 22.9598 4.48916 23.6967 4.79445C24.4335 5.09974 25.103 5.5472 25.6669 6.11128C26.251 6.69679 26.7098 7.39502 27.0154 8.16349C27.321 8.93195 27.4671 9.75457 27.4447 10.5813ZM12.8891 21.4068L11.6669 22.6291C11.2683 23.0304 10.7938 23.3484 10.2712 23.5647C9.74855 23.781 9.18811 23.8913 8.62248 23.8891C7.77392 23.8884 6.94461 23.6362 6.23933 23.1644C5.53404 22.6926 4.98443 22.0223 4.65994 21.2382C4.33545 20.4541 4.25063 19.5915 4.41622 18.7593C4.58181 17.927 4.99036 17.1625 5.59025 16.5624L9.4447 12.7013C10.0518 12.091 10.8284 11.6773 11.6736 11.514C12.5188 11.3508 13.3936 11.4454 14.1843 11.7856C14.975 12.1259 15.6452 12.6961 16.1077 13.4221C16.5703 14.1481 16.8038 14.9964 16.778 15.8568C16.7714 16.0926 16.8587 16.3213 17.0207 16.4927C17.1827 16.6641 17.4062 16.7641 17.6419 16.7707C17.8777 16.7774 18.1064 16.6901 18.2778 16.5281C18.4492 16.366 18.5492 16.1426 18.5558 15.9068C18.5772 15.0814 18.4306 14.2603 18.125 13.4932C17.8194 12.7262 17.3611 12.0292 16.778 11.4446C15.6393 10.3064 14.0953 9.66703 12.4853 9.66703C10.8753 9.66703 9.33116 10.3064 8.19248 11.4446L4.33359 15.3057C3.48496 16.154 2.90683 17.2348 2.67227 18.4116C2.4377 19.5883 2.55724 20.8082 3.01576 21.9171C3.47427 23.0259 4.2512 23.9739 5.24835 24.6414C6.24551 25.3088 7.41813 25.6656 8.61803 25.6668C9.41567 25.6691 10.2058 25.5132 10.9428 25.208C11.6797 24.9029 12.3488 24.4546 12.9114 23.8891L14.1336 22.6668C14.2774 22.4974 14.3526 22.2802 14.3442 22.0581C14.3359 21.836 14.2446 21.6251 14.0884 21.4669C13.9322 21.3088 13.7224 21.2149 13.5004 21.2038C13.2785 21.1927 13.0604 21.2651 12.8891 21.4068Z" fill="#262829"/>
</g>
</svg>
