<svg width="48" height="48" viewBox="0 0 48 48" fill="none" xmlns="http://www.w3.org/2000/svg">
<circle cx="24" cy="24" r="24" fill="white"/>
<path d="M36.4447 19.5813C36.4001 21.1287 35.7638 22.6001 34.6669 23.6924L30.8058 27.5557C30.2435 28.1212 29.5745 28.5694 28.8378 28.8746C28.101 29.1797 27.311 29.3357 26.5136 29.3335H26.508C25.697 29.3329 24.8942 29.1698 24.1473 28.8538C23.4003 28.5378 22.7242 28.0753 22.159 27.4936C21.5938 26.9119 21.1509 26.2228 20.8564 25.4671C20.562 24.7113 20.422 23.9043 20.4447 23.0935C20.4513 22.8578 20.5513 22.6343 20.7227 22.4723C20.8941 22.3103 21.1228 22.223 21.3586 22.2296C21.5943 22.2362 21.8178 22.3363 21.9798 22.5076C22.1418 22.679 22.2291 22.9078 22.2225 23.1435C22.2063 23.7168 22.3052 24.2874 22.5133 24.8218C22.7214 25.3562 23.0345 25.8435 23.4341 26.2548C23.8337 26.6661 24.3118 26.9932 24.8399 27.2166C25.3681 27.44 25.9357 27.5554 26.5091 27.5557C27.0729 27.5572 27.6313 27.4469 28.1522 27.2312C28.673 27.0155 29.1459 26.6987 29.5436 26.2991L33.4047 22.4379C34.2013 21.6313 34.6465 20.5422 34.6429 19.4085C34.6394 18.2748 34.1874 17.1885 33.3858 16.3869C32.5841 15.5852 31.4978 15.1333 30.3641 15.1297C29.2304 15.1262 28.1414 15.5713 27.3347 16.3679L26.1125 17.5902C25.9444 17.7498 25.7206 17.8375 25.4889 17.8346C25.2571 17.8316 25.0356 17.7382 24.8717 17.5743C24.7078 17.4104 24.6144 17.1889 24.6114 16.9571C24.6085 16.7253 24.6961 16.5016 24.8558 16.3335L26.078 15.1113C26.6419 14.5472 27.3114 14.0997 28.0483 13.7945C28.7851 13.4892 29.5749 13.332 30.3725 13.332C31.1701 13.332 31.9598 13.4892 32.6967 13.7945C33.4335 14.0997 34.103 14.5472 34.6669 15.1113C35.251 15.6968 35.7098 16.395 36.0154 17.1635C36.321 17.932 36.4671 18.7546 36.4447 19.5813ZM21.8891 30.4068L20.6669 31.6291C20.2683 32.0304 19.7938 32.3484 19.2712 32.5647C18.7485 32.781 18.1881 32.8913 17.6225 32.8891C16.7739 32.8884 15.9446 32.6362 15.2393 32.1644C14.534 31.6926 13.9844 31.0223 13.6599 30.2382C13.3354 29.4541 13.2506 28.5915 13.4162 27.7593C13.5818 26.927 13.9904 26.1625 14.5903 25.5624L18.4447 21.7013C19.0518 21.091 19.8284 20.6773 20.6736 20.514C21.5188 20.3508 22.3936 20.4454 23.1843 20.7856C23.975 21.1259 24.6452 21.6961 25.1077 22.4221C25.5703 23.1481 25.8038 23.9964 25.778 24.8568C25.7714 25.0926 25.8587 25.3213 26.0207 25.4927C26.1827 25.6641 26.4062 25.7641 26.6419 25.7707C26.8777 25.7774 27.1064 25.6901 27.2778 25.5281C27.4492 25.366 27.5492 25.1426 27.5558 24.9068C27.5772 24.0814 27.4306 23.2603 27.125 22.4932C26.8194 21.7262 26.3611 21.0292 25.778 20.4446C24.6393 19.3064 23.0953 18.667 21.4853 18.667C19.8753 18.667 18.3312 19.3064 17.1925 20.4446L13.3336 24.3057C12.485 25.154 11.9068 26.2348 11.6723 27.4116C11.4377 28.5883 11.5572 29.8082 12.0158 30.9171C12.4743 32.0259 13.2512 32.9739 14.2484 33.6414C15.2455 34.3088 16.4181 34.6656 17.618 34.6668C18.4157 34.6691 19.2058 34.5132 19.9428 34.208C20.6797 33.9029 21.3488 33.4546 21.9114 32.8891L23.1336 31.6668C23.2774 31.4974 23.3526 31.2802 23.3442 31.0581C23.3359 30.836 23.2446 30.6251 23.0884 30.4669C22.9322 30.3088 22.7224 30.2149 22.5004 30.2038C22.2785 30.1927 22.0604 30.2651 21.8891 30.4068Z" fill="#262829"/>
</svg>
