<svg width="110" height="24" viewBox="0 0 110 24" fill="none" xmlns="http://www.w3.org/2000/svg">
<g id="Group 1000003166">
<g id="Group 1000003165">
<path id="Vector" d="M4.35547 9.24571C4.35547 10.1265 5.11792 10.4025 7.48088 10.4025C8.47668 10.4025 9.84056 10.2875 11.1387 9.91614C11.2767 9.87013 11.3918 9.87013 11.4871 9.87013C11.7664 9.87013 11.9275 10.0082 12.0195 10.3565L12.3448 11.6777C12.4599 12.1641 12.2988 12.4401 11.8124 12.6045C10.5143 13.0218 8.82504 13.2782 7.15881 13.2782C2.71224 13.2782 1 12.1214 1 9.31801C1 6.35363 2.64323 5.31182 7.64849 5.31182C8.73631 5.31182 9.82412 5.38084 10.6819 5.51887C11.1453 5.58789 11.3293 5.82122 11.3293 6.33063V7.69779C11.3293 8.18418 11.0533 8.41752 10.5669 8.34522C9.68609 8.23019 8.75931 8.18418 8.01986 8.18418C5.05548 8.18418 4.36204 8.37151 4.36204 9.24899L4.35547 9.24571ZM11.7401 2.29486V3.57001C11.7401 4.0564 11.4641 4.33575 10.9777 4.33575H2.01551C1.52912 4.33575 1.25306 4.0564 1.25306 3.57001V2.29486C1.25306 1.80847 1.52912 1.53241 2.01551 1.53241H10.9777C11.4641 1.53241 11.7401 1.80847 11.7401 2.29486ZM2.80426 17.7412C2.80426 16.5844 2.87328 16.167 2.94229 15.7266C3.01131 15.2402 3.22164 14.9641 3.70804 14.9641H5.53859C6.02498 14.9641 6.37335 15.2435 6.30105 15.7266C6.20903 16.328 6.16302 16.6074 6.16302 17.2318C6.16302 18.4346 7.01749 18.967 8.77903 18.967C11.6744 18.967 14.5468 18.783 17.0017 18.5497C17.4651 18.5036 17.6985 18.8027 17.7215 19.2661L17.8365 20.9586C17.8595 21.422 17.5834 21.6291 17.12 21.6751C14.8031 21.9281 12.2101 22.0924 8.36494 22.0924C4.82214 22.0924 2.80755 20.5412 2.80755 17.7379L2.80426 17.7412ZM16.443 15.4965H14.6125C14.1261 15.4965 13.85 15.2172 13.85 14.7308V1.76246C13.85 1.27606 14.1261 1 14.6125 1H16.443C16.9294 1 17.2088 1.27606 17.2088 1.76246V6.97477C17.4618 6.5804 17.9942 6.32734 18.645 6.32734H19.3844C19.8478 6.32734 20.1041 6.5804 20.1041 7.04379V8.73302C20.1041 9.19641 19.8511 9.45275 19.3844 9.45275H18.5497C17.7609 9.45275 17.2055 9.98516 17.2055 10.7279V14.7341C17.2055 15.2205 16.9261 15.4998 16.4398 15.4998L16.443 15.4965Z" fill="#EF6038"/>
<path id="Vector_2" d="M32.4813 20.1735C32.4813 20.6599 32.2282 20.9393 31.7418 20.9393H29.8883C29.4019 20.9393 29.1258 20.6599 29.1258 20.1735V17.5805C29.1258 17.0941 29.4019 16.6537 29.8192 16.4697C26.9469 16.4467 24.2848 16.3317 22.4773 16.0753C21.9449 16.0063 21.7148 15.773 21.7148 15.3359V13.6203C21.7148 13.1339 21.9909 12.8579 22.4773 12.9269C24.4689 13.18 27.5253 13.3213 30.769 13.3213C34.3808 13.3213 37.6706 13.1602 39.1067 12.9269C39.5931 12.8349 39.8955 13.1339 39.8955 13.6203V15.3359C39.8955 15.7533 39.6622 15.9833 39.1298 16.0753C38.0189 16.2594 35.84 16.4467 33.4803 16.4467C32.8099 16.4467 32.4845 16.7951 32.4845 17.4195V20.1768L32.4813 20.1735ZM24.5576 11.4217C24.0252 11.4217 23.4008 11.4217 23.4008 10.702V8.96673C23.4008 8.52634 23.6571 8.29629 24.1665 8.29629C27.4563 8.29629 29.2375 6.44273 29.2375 3.87272V2.27551C29.2375 1.78911 29.5169 1.50977 30.0033 1.50977H31.8338C32.3202 1.50977 32.5963 1.78911 32.5963 2.27551V3.87272C32.5963 6.44273 34.3545 8.29629 37.6213 8.29629C38.1307 8.29629 38.3837 8.52634 38.3837 8.96673V10.702C38.3837 11.4217 37.7593 11.4217 37.2269 11.4217C34.1245 11.4217 31.7845 9.8705 30.9071 7.7836C30.0033 9.86721 27.6633 11.4217 24.5609 11.4217H24.5576Z" fill="#EF6038"/>
<path id="Vector_3" d="M51.4599 10.958C49.8627 10.958 48.9819 10.1955 48.9129 8.78232L48.5645 2.27514C48.5415 1.81175 48.8406 1.53569 49.327 1.53569H51.1575C51.6899 1.53569 51.9233 1.71973 51.9463 2.20613L52.0153 3.38596H55.9755L56.0445 2.20613C56.0675 1.74274 56.2976 1.53569 56.83 1.53569H58.6605C59.1699 1.53569 59.4493 1.81175 59.4263 2.27514L59.0779 8.78232C59.0089 10.1955 58.1281 10.958 56.5309 10.958H51.4599ZM53.6618 18.9013C53.6618 19.4107 54.2632 19.5027 58.7098 19.5027C60.4944 19.5027 63.2714 19.3647 64.7996 19.0853C65.1677 19.0163 65.424 19.2004 65.447 19.5717L65.5621 21.0769C65.5851 21.4023 65.378 21.6323 65.0297 21.6784C63.3634 21.9117 60.5141 22.0957 58.7295 22.0957C52.1533 22.0957 50.2998 21.307 50.2998 18.852C50.2998 16.397 52.4524 15.6806 57.3854 15.6806C58.5422 15.6806 59.8864 15.6576 60.9052 15.6576C61.5066 15.6576 61.7596 15.4965 61.7596 15.1712C61.7596 14.8228 61.5263 14.6618 60.9479 14.6618C58.7492 14.6618 54.0923 14.8228 51.3613 15.0562C50.9899 15.0792 50.7599 14.8721 50.7599 14.5007V12.9956C50.7599 12.6472 50.9439 12.4631 51.3613 12.4401C54.8581 12.1871 59.4197 12.0458 62.7784 12.1641C64.2606 12.2101 65.0954 12.8575 65.0954 13.9716C65.0954 14.8754 64.586 15.5918 63.7512 15.8942H64.3066C64.655 15.8942 64.9081 16.1012 64.9081 16.4266V17.7938C64.9081 18.1191 64.678 18.3492 64.3066 18.3492C62.6174 18.3492 61.5526 18.2802 57.4281 18.2802C54.1384 18.2802 53.652 18.4182 53.652 18.9046L53.6618 18.9013ZM52.2256 7.48417C52.2486 7.92455 52.3867 8.06259 52.8731 8.06259H55.1177C55.6041 8.06259 55.7421 7.92455 55.7651 7.48417L55.8342 6.28133H52.15L52.2191 7.48417H52.2256ZM64.1719 11.096H62.3413C61.8549 11.096 61.5789 10.8166 61.5789 10.3302V1.76246C61.5789 1.27606 61.8549 1 62.3413 1H64.1719C64.6583 1 64.9376 1.27606 64.9376 1.76246V4.77285C65.1907 4.37847 65.7231 4.12542 66.3738 4.12542H67.1133C67.5767 4.12542 67.833 4.37847 67.833 4.84186V6.5311C67.833 6.99449 67.5799 7.24755 67.1133 7.24755H66.2785C65.4898 7.24755 64.9344 7.77995 64.9344 8.52269V10.3302C64.9344 10.8166 64.655 11.096 64.1686 11.096H64.1719Z" fill="#EF6038"/>
<path id="Vector_4" d="M79.4441 2.45918C79.9305 2.45918 80.2099 2.73853 80.2099 3.22493V4.82214C80.2099 5.30854 79.9305 5.58789 79.4441 5.58789H76.3877V10.9152C76.3877 13.3012 77.8009 15.2238 79.6051 15.4768C80.0915 15.5458 80.3249 15.7792 80.3249 16.2163V17.9515C80.3249 18.4149 80.0915 18.6713 79.6051 18.5989C77.2882 18.2736 75.3459 16.8374 74.7412 14.8228C74.1168 16.8374 72.1482 18.2736 69.8082 18.5989C69.3251 18.668 69.0458 18.4149 69.0458 17.9515V16.2163C69.0458 15.7759 69.2988 15.5458 69.8082 15.4768C71.6158 15.2238 73.0257 13.3012 73.0257 10.9152V5.5846H69.9233C69.4369 5.5846 69.1608 5.30525 69.1608 4.81886V3.22164C69.1608 2.73525 69.4369 2.4559 69.9233 2.4559H79.4408L79.4441 2.45918ZM84.7945 21.7507H82.9639C82.4775 21.7507 82.2014 21.4713 82.2014 20.9849V1.76246C82.2014 1.27606 82.4775 1 82.9639 1H84.7945C85.2808 1 85.5602 1.27606 85.5602 1.76246V9.52177C85.8133 9.1274 86.3457 8.87434 86.9964 8.87434H87.7358C88.1992 8.87434 88.4556 9.1274 88.4556 9.59079V11.3983C88.4556 11.8617 88.2025 12.1181 87.7358 12.1181H86.9011C86.1123 12.1181 85.5569 12.6505 85.5569 13.3932V20.9882C85.5569 21.4746 85.2776 21.7539 84.7912 21.7539L84.7945 21.7507Z" fill="#EF6038"/>
<path id="Vector_5" d="M106.898 18.2305C106.898 19.6667 106.829 20.7085 106.76 21.1489C106.691 21.6353 106.481 21.8653 105.995 21.8653H104.121C103.635 21.8653 103.333 21.5893 103.402 21.1029C103.494 20.5015 103.54 19.7127 103.54 18.9503C103.54 17.7704 103.03 17.261 101.755 17.261C98.0711 17.261 94.9457 17.4911 92.3527 17.6784C91.8893 17.7014 91.6329 17.4221 91.6329 16.9587V15.2694C91.6329 14.806 91.886 14.599 92.3527 14.553C93.7428 14.3919 95.3861 14.2736 97.4697 14.2046V12.8144C97.4697 12.4431 97.6537 12.167 97.9561 12.0027C95.5471 12.0487 92.6517 11.9797 90.8212 11.8417C90.2888 11.7956 90.0587 11.5393 90.0587 11.1022V9.73504C90.0587 9.24865 90.3348 8.99559 90.8212 9.0416C92.8128 9.20264 95.8724 9.22564 99.1129 9.22564C100.362 9.22564 101.568 9.22564 102.679 9.20264C102.932 8.57821 103.211 7.67444 103.211 6.54061C103.211 5.17345 102.491 4.57203 100.963 4.57203C98.5542 4.57203 95.8232 4.75935 92.7175 4.9664C92.2771 4.98941 91.978 4.73306 91.978 4.31897V2.60344C91.978 2.20907 92.2804 1.95601 92.7175 1.91C94.732 1.74896 98.3899 1.51562 101.956 1.51562C105.107 1.51562 106.54 2.79077 106.54 5.68285C106.54 7.004 106.333 8.13783 106.054 9.13362C106.609 9.11062 107.096 9.06461 107.444 9.0416C107.93 8.99559 108.233 9.24865 108.233 9.73504V11.1022C108.233 11.5196 107.999 11.7956 107.467 11.8417C106.333 11.9567 103.786 12.0257 101.657 12.0257C101.101 12.0257 100.822 12.305 100.822 12.7454V14.1356H102.258C105.433 14.1356 106.889 15.4568 106.889 18.2338L106.898 18.2305Z" fill="#EF6038"/>
</g>
</g>
</svg>
