<svg width="36" height="36" viewBox="0 0 36 36" fill="none" xmlns="http://www.w3.org/2000/svg">
<g id="DotsThreeVertical">
<path id="Vector" d="M19.6875 18C19.6875 18.3338 19.5885 18.66 19.4031 18.9375C19.2177 19.215 18.9541 19.4313 18.6458 19.559C18.3374 19.6868 17.9981 19.7202 17.6708 19.6551C17.3434 19.59 17.0428 19.4292 16.8068 19.1932C16.5708 18.9572 16.41 18.6566 16.3449 18.3292C16.2798 18.0019 16.3132 17.6626 16.441 17.3542C16.5687 17.0459 16.785 16.7823 17.0625 16.5969C17.34 16.4115 17.6662 16.3125 18 16.3125C18.4476 16.3125 18.8768 16.4903 19.1932 16.8068C19.5097 17.1232 19.6875 17.5524 19.6875 18ZM18 10.125C18.3338 10.125 18.66 10.026 18.9375 9.84061C19.215 9.65518 19.4313 9.39163 19.559 9.08328C19.6868 8.77493 19.7202 8.43563 19.6551 8.10829C19.59 7.78094 19.4292 7.48026 19.1932 7.24426C18.9572 7.00826 18.6566 6.84754 18.3292 6.78243C18.0019 6.71731 17.6626 6.75073 17.3542 6.87845C17.0459 7.00618 16.7823 7.22247 16.5969 7.49998C16.4115 7.77748 16.3125 8.10375 16.3125 8.4375C16.3125 8.88505 16.4903 9.31428 16.8068 9.63074C17.1232 9.94721 17.5524 10.125 18 10.125ZM18 25.875C17.6662 25.875 17.34 25.974 17.0625 26.1594C16.785 26.3448 16.5687 26.6084 16.441 26.9167C16.3132 27.2251 16.2798 27.5644 16.3449 27.8917C16.41 28.2191 16.5708 28.5197 16.8068 28.7557C17.0428 28.9917 17.3434 29.1525 17.6708 29.2176C17.9981 29.2827 18.3374 29.2493 18.6458 29.1215C18.9541 28.9938 19.2177 28.7775 19.4031 28.5C19.5885 28.2225 19.6875 27.8963 19.6875 27.5625C19.6875 27.115 19.5097 26.6857 19.1932 26.3693C18.8768 26.0528 18.4476 25.875 18 25.875Z" fill="black"/>
</g>
</svg>
