<svg width="40" height="40" viewBox="0 0 40 40" fill="none" xmlns="http://www.w3.org/2000/svg">
<mask id="path-1-inside-1_985_6674" fill="white">
<path fill-rule="evenodd" clip-rule="evenodd" d="M21.9551 35.1473C23.2286 33.8236 25.0181 33 27 33C29.2153 33 31.1902 34.029 32.4728 35.6352C37.0607 31.9704 40 26.3285 40 20C40 8.9543 31.0457 0 20 0C8.9543 0 0 8.9543 0 20C0 25.6718 2.36092 30.7921 6.15363 34.4319C6.8825 30.7644 10.1184 28 14 28C18.1302 28 21.5294 31.1299 21.9551 35.1473Z"/>
</mask>
<path fill-rule="evenodd" clip-rule="evenodd" d="M21.9551 35.1473C23.2286 33.8236 25.0181 33 27 33C29.2153 33 31.1902 34.029 32.4728 35.6352C37.0607 31.9704 40 26.3285 40 20C40 8.9543 31.0457 0 20 0C8.9543 0 0 8.9543 0 20C0 25.6718 2.36092 30.7921 6.15363 34.4319C6.8825 30.7644 10.1184 28 14 28C18.1302 28 21.5294 31.1299 21.9551 35.1473Z" fill="url(#paint0_linear_985_6674)"/>
<path d="M21.9551 35.1473L20.9607 35.2526L21.1869 37.388L22.6757 35.8406L21.9551 35.1473ZM32.4728 35.6352L31.6914 36.2592L32.3155 37.0407L33.097 36.4165L32.4728 35.6352ZM6.15363 34.4319L5.46122 35.1534L6.77855 36.4176L7.13445 34.6268L6.15363 34.4319ZM22.6757 35.8406C23.7685 34.7048 25.3011 34 27 34V32C24.7351 32 22.6887 32.9425 21.2345 34.4539L22.6757 35.8406ZM27 34C28.8983 34 30.5904 34.8804 31.6914 36.2592L33.2542 35.0111C31.79 33.1776 29.5322 32 27 32V34ZM33.097 36.4165C37.9122 32.5701 41 26.6453 41 20H39C39 26.0116 36.2093 31.3707 31.8487 34.8538L33.097 36.4165ZM41 20C41 8.40202 31.598 -1 20 -1V1C30.4934 1 39 9.50659 39 20H41ZM20 -1C8.40202 -1 -1 8.40202 -1 20H1C1 9.50659 9.50659 1 20 1V-1ZM-1 20C-1 25.9552 1.48016 31.3329 5.46122 35.1534L6.84604 33.7104C3.24169 30.2514 1 25.3883 1 20H-1ZM7.13445 34.6268C7.77211 31.4182 10.6048 29 14 29V27C9.63207 27 5.99288 30.1106 5.17281 34.2369L7.13445 34.6268ZM14 29C17.6133 29 20.5883 31.7385 20.9607 35.2526L22.9495 35.0419C22.4705 30.5213 18.6471 27 14 27V29Z" fill="#FFAA92" mask="url(#path-1-inside-1_985_6674)"/>
<path d="M28.9077 23.66C28.8469 23.7634 28.7595 23.8493 28.6542 23.9089C28.5489 23.9686 28.4295 24 28.3079 24H11.6916C11.5702 23.9999 11.4509 23.9684 11.3457 23.9086C11.2406 23.8489 11.1533 23.7631 11.0926 23.6597C11.0319 23.5564 11 23.4392 11 23.3199C11 23.2006 11.032 23.0834 11.0928 22.9801C12.4108 20.7424 14.442 19.1378 16.8124 18.3772C15.6399 17.6917 14.7289 16.6472 14.2194 15.4041C13.7098 14.161 13.6299 12.788 13.9919 11.496C14.3539 10.2039 15.1377 9.0643 16.2231 8.25209C17.3084 7.43988 18.6352 7 19.9998 7C21.3643 7 22.6912 7.43988 23.7765 8.25209C24.8619 9.0643 25.6457 10.2039 26.0077 11.496C26.3696 12.788 26.2897 14.161 25.7802 15.4041C25.2707 16.6472 24.3597 17.6917 23.1872 18.3772C25.5576 19.1378 27.5888 20.7424 28.9068 22.9801C28.9677 23.0834 28.9998 23.2006 29 23.32C29.0002 23.4393 28.9683 23.5566 28.9077 23.66Z" fill="white"/>
<defs>
<linearGradient id="paint0_linear_985_6674" x1="37" y1="31.6348" x2="6" y2="4.63477" gradientUnits="userSpaceOnUse">
<stop stop-color="#EF6038"/>
<stop offset="1" stop-color="#E3471B"/>
</linearGradient>
</defs>
</svg>
