<svg width="22" height="22" viewBox="0 0 22 22" fill="none" xmlns="http://www.w3.org/2000/svg">
<g id="PlusCircle">
<path id="Vector" d="M11 2.0625C9.23233 2.0625 7.50436 2.58668 6.0346 3.56874C4.56483 4.55081 3.41929 5.94665 2.74283 7.57977C2.06637 9.21288 1.88938 11.0099 2.23424 12.7436C2.57909 14.4773 3.43031 16.0698 4.68024 17.3198C5.93017 18.5697 7.52268 19.4209 9.25638 19.7658C10.9901 20.1106 12.7871 19.9336 14.4202 19.2572C16.0534 18.5807 17.4492 17.4352 18.4313 15.9654C19.4133 14.4956 19.9375 12.7677 19.9375 11C19.9345 8.63054 18.992 6.35896 17.3165 4.6835C15.641 3.00803 13.3695 2.06546 11 2.0625ZM14.4375 11.6875H11.6875V14.4375C11.6875 14.6198 11.6151 14.7947 11.4861 14.9236C11.3572 15.0526 11.1823 15.125 11 15.125C10.8177 15.125 10.6428 15.0526 10.5139 14.9236C10.3849 14.7947 10.3125 14.6198 10.3125 14.4375V11.6875H7.5625C7.38017 11.6875 7.2053 11.6151 7.07637 11.4861C6.94744 11.3572 6.875 11.1823 6.875 11C6.875 10.8177 6.94744 10.6428 7.07637 10.5139C7.2053 10.3849 7.38017 10.3125 7.5625 10.3125H10.3125V7.5625C10.3125 7.38016 10.3849 7.2053 10.5139 7.07636C10.6428 6.94743 10.8177 6.875 11 6.875C11.1823 6.875 11.3572 6.94743 11.4861 7.07636C11.6151 7.2053 11.6875 7.38016 11.6875 7.5625V10.3125H14.4375C14.6198 10.3125 14.7947 10.3849 14.9236 10.5139C15.0526 10.6428 15.125 10.8177 15.125 11C15.125 11.1823 15.0526 11.3572 14.9236 11.4861C14.7947 11.6151 14.6198 11.6875 14.4375 11.6875Z" fill="#EF6038"/>
</g>
</svg>
