<svg width="63" height="62" viewBox="0 0 63 62" fill="none" xmlns="http://www.w3.org/2000/svg">
<g id="Layer_1" clip-path="url(#clip0_374_1765)">
<path id="Union" fill-rule="evenodd" clip-rule="evenodd" d="M55.7571 2.81757C55.7571 4.04252 54.787 5.03553 53.5904 5.03553H33.9661C33.9667 5.05656 33.967 5.07765 33.967 5.09882V17.456H29.6336V5.09882C29.6336 5.07765 29.6339 5.05656 29.6345 5.03553H10.0094C8.81282 5.03553 7.84277 4.04252 7.84277 2.81757C7.84277 1.59262 8.81282 0.599609 10.0094 0.599609H53.5904C54.787 0.599609 55.7571 1.59262 55.7571 2.81757Z" fill="#404345"/>
<path id="Vector" d="M63.0001 48.6341C63.0001 64.0965 50.4953 61.1814 31.8001 61.1814C14.5683 61.1814 0.600098 63.2093 0.600098 48.6341C0.600098 28.4747 14.5683 12.1328 31.8001 12.1328C49.0319 12.1328 63.0001 28.4747 63.0001 48.6341Z" fill="url(#paint0_linear_374_1765)"/>
<path id="Vector_2" d="M31.8 55.1304C40.0143 55.1304 46.6732 48.3138 46.6732 39.905C46.6732 31.4963 40.0143 24.6797 31.8 24.6797C23.5857 24.6797 16.9268 31.4963 16.9268 39.905C16.9268 48.3138 23.5857 55.1304 31.8 55.1304Z" fill="white"/>
<path id="Vector_3" d="M32.7936 29.2092C32.6573 28.0287 30.943 28.0287 30.8067 29.2092L29.5288 40.285C29.4602 40.8787 29.9245 41.3996 30.5222 41.3996H33.0781C33.6758 41.3996 34.14 40.8787 34.0715 40.285L32.7936 29.2092Z" fill="#262829"/>
</g>
<defs>
<linearGradient id="paint0_linear_374_1765" x1="27.8001" y1="15.7984" x2="56.6001" y2="46.1984" gradientUnits="userSpaceOnUse">
<stop stop-color="#EF6038"/>
<stop offset="1" stop-color="#E3461A"/>
</linearGradient>
<clipPath id="clip0_374_1765">
<rect width="62.4" height="60.8" fill="white" transform="translate(0.600098 0.599609)"/>
</clipPath>
</defs>
</svg>
