<svg width="36" height="36" viewBox="0 0 36 36" fill="none" xmlns="http://www.w3.org/2000/svg">
<g id="PaperPlane">
<path id="Vector" d="M33.2156 30.6995C33.0057 30.9504 32.7432 31.1521 32.4468 31.2904C32.1503 31.4286 31.8271 31.5001 31.5 31.4997C31.2428 31.4994 30.9875 31.4557 30.7448 31.3703L19.5019 27.5734C19.3904 27.5358 19.2935 27.4641 19.2249 27.3685C19.1563 27.2729 19.1194 27.1581 19.1194 27.0405V16.8747C19.1197 16.7204 19.0883 16.5678 19.0272 16.4262C18.9661 16.2846 18.8765 16.1571 18.764 16.0516C18.6515 15.9461 18.5185 15.8649 18.3733 15.8129C18.2281 15.761 18.0737 15.7395 17.9198 15.7497C17.6305 15.7752 17.3616 15.909 17.1668 16.1244C16.972 16.3398 16.8658 16.6208 16.8694 16.9112V27.0362C16.8694 27.1539 16.8325 27.2686 16.7639 27.3643C16.6952 27.4599 16.5984 27.5315 16.4869 27.5692L5.2439 31.3661C4.81257 31.5176 4.34531 31.5342 3.90433 31.4136C3.46336 31.2929 3.0696 31.0408 2.77548 30.6908C2.48136 30.3408 2.30084 29.9095 2.25797 29.4543C2.21509 28.9992 2.31188 28.5417 2.53546 28.143L16.0312 4.51795C16.227 4.17 16.5118 3.8804 16.8564 3.67886C17.201 3.47732 17.593 3.37109 17.9923 3.37109C18.3915 3.37109 18.7835 3.47732 19.1281 3.67886C19.4728 3.8804 19.7575 4.17 19.9533 4.51795L33.4547 28.1387C33.6835 28.5382 33.7833 28.9986 33.7405 29.457C33.6977 29.9153 33.5144 30.3493 33.2156 30.6995Z" fill="#EF6038"/>
</g>
</svg>
