<svg width="136" height="90" viewBox="0 0 136 90" fill="none" xmlns="http://www.w3.org/2000/svg">
<rect x="33" width="70" height="32" rx="16" fill="#D0E870"/>
<path d="M64.9453 11.416H67.4893V13.144H64.9453V11.416ZM64.9453 14.632H67.4893V16.376H64.9453V14.632ZM58.0493 10.408C58.8173 10.408 59.5053 10.5627 60.1133 10.872C60.7213 11.1813 61.2013 11.608 61.5533 12.152C61.9053 12.6853 62.0813 13.304 62.0813 14.008C62.0813 14.7013 61.9053 15.32 61.5533 15.864C61.2013 16.3973 60.7213 16.8187 60.1133 17.128C59.5053 17.4373 58.8173 17.592 58.0493 17.592C57.2919 17.592 56.6093 17.4373 56.0013 17.128C55.3933 16.8187 54.9133 16.3973 54.5613 15.864C54.2093 15.32 54.0333 14.7013 54.0333 14.008C54.0333 13.304 54.2093 12.6853 54.5613 12.152C54.9133 11.608 55.3933 11.1813 56.0013 10.872C56.6093 10.5627 57.2919 10.408 58.0493 10.408ZM58.0493 12.184C57.6866 12.184 57.3559 12.2587 57.0573 12.408C56.7586 12.5467 56.5239 12.7547 56.3533 13.032C56.1933 13.2987 56.1133 13.624 56.1133 14.008C56.1133 14.3813 56.1933 14.7067 56.3533 14.984C56.5239 15.2507 56.7586 15.4533 57.0573 15.592C57.3559 15.7307 57.6866 15.8 58.0493 15.8C58.4333 15.8 58.7693 15.7307 59.0573 15.592C59.3453 15.4533 59.5746 15.2507 59.7453 14.984C59.9159 14.7067 60.0013 14.3813 60.0013 14.008C60.0013 13.624 59.9159 13.2987 59.7453 13.032C59.5746 12.7547 59.3453 12.5467 59.0573 12.408C58.7693 12.2587 58.4333 12.184 58.0493 12.184ZM63.4573 9.608H65.5853V18.248H63.4573V9.608ZM60.7533 18.552C61.7773 18.552 62.6626 18.6693 63.4093 18.904C64.1666 19.1387 64.7479 19.4747 65.1533 19.912C65.5586 20.3493 65.7613 20.8773 65.7613 21.496C65.7613 22.104 65.5586 22.6267 65.1533 23.064C64.7479 23.5013 64.1666 23.8373 63.4093 24.072C62.6626 24.3067 61.7773 24.424 60.7533 24.424C59.7293 24.424 58.8386 24.3067 58.0813 24.072C57.3346 23.8373 56.7533 23.5013 56.3373 23.064C55.9319 22.6267 55.7293 22.104 55.7293 21.496C55.7293 20.8773 55.9319 20.3493 56.3373 19.912C56.7533 19.4747 57.3346 19.1387 58.0813 18.904C58.8386 18.6693 59.7293 18.552 60.7533 18.552ZM60.7533 20.232C60.1239 20.232 59.5959 20.28 59.1693 20.376C58.7426 20.4613 58.4173 20.5947 58.1933 20.776C57.9693 20.9573 57.8573 21.1973 57.8573 21.496C57.8573 21.7733 57.9693 22.008 58.1933 22.2C58.4173 22.392 58.7426 22.536 59.1693 22.632C59.5959 22.7173 60.1239 22.76 60.7533 22.76C61.3826 22.76 61.9106 22.7173 62.3373 22.632C62.7746 22.536 63.0999 22.392 63.3133 22.2C63.5373 22.008 63.6493 21.7733 63.6493 21.496C63.6493 21.1973 63.5373 20.9573 63.3133 20.776C63.0999 20.5947 62.7746 20.4613 62.3373 20.376C61.9106 20.28 61.3826 20.232 60.7533 20.232ZM69.232 11.448H81.44V13.144H69.232V11.448ZM68.656 21.224H82.08V22.936H68.656V21.224ZM74.272 19.256H76.4V21.896H74.272V19.256ZM75.328 13.768C76.352 13.768 77.2373 13.8853 77.984 14.12C78.7413 14.344 79.3227 14.6747 79.728 15.112C80.1333 15.5387 80.336 16.056 80.336 16.664C80.336 17.272 80.1333 17.7947 79.728 18.232C79.3227 18.6587 78.7413 18.9893 77.984 19.224C77.2373 19.448 76.3467 19.56 75.312 19.56C74.288 19.56 73.3973 19.448 72.64 19.224C71.8933 18.9893 71.3173 18.6587 70.912 18.232C70.5067 17.7947 70.304 17.272 70.304 16.664C70.304 16.056 70.5067 15.5387 70.912 15.112C71.3173 14.6747 71.8933 14.344 72.64 14.12C73.3973 13.8853 74.2933 13.768 75.328 13.768ZM75.312 15.416C74.704 15.416 74.1867 15.464 73.76 15.56C73.3333 15.6453 73.008 15.7787 72.784 15.96C72.5707 16.1413 72.464 16.376 72.464 16.664C72.464 16.9413 72.5707 17.176 72.784 17.368C73.008 17.5493 73.3333 17.6827 73.76 17.768C74.1867 17.8533 74.704 17.896 75.312 17.896C75.9413 17.896 76.464 17.8533 76.88 17.768C77.296 17.6827 77.6107 17.5493 77.824 17.368C78.048 17.176 78.16 16.9413 78.16 16.664C78.16 16.376 78.048 16.1413 77.824 15.96C77.6107 15.7787 77.296 15.6453 76.88 15.56C76.464 15.464 75.9413 15.416 75.312 15.416ZM74.272 9.752H76.4V12.504H74.272V9.752Z" fill="white"/>
<path d="M6.13094 57.51H7.58694V59.218H6.13094V57.51ZM6.88694 53.506C8.32427 53.506 9.4396 53.6973 10.2329 54.08C11.0356 54.4533 11.4369 54.99 11.4369 55.69C11.4369 56.3993 11.0356 56.9453 10.2329 57.328C9.4396 57.7107 8.32427 57.902 6.88694 57.902C5.4496 57.902 4.3296 57.7107 3.52694 57.328C2.72427 56.9453 2.32294 56.3993 2.32294 55.69C2.32294 54.99 2.72427 54.4533 3.52694 54.08C4.3296 53.6973 5.4496 53.506 6.88694 53.506ZM6.87294 54.584C6.2196 54.584 5.66427 54.626 5.20694 54.71C4.75894 54.794 4.41827 54.92 4.18494 55.088C3.96094 55.2467 3.84894 55.4473 3.84894 55.69C3.84894 55.9327 3.96094 56.138 4.18494 56.306C4.41827 56.474 4.75894 56.6 5.20694 56.684C5.66427 56.768 6.2196 56.81 6.87294 56.81C7.54494 56.81 8.10494 56.768 8.55294 56.684C9.00094 56.6 9.3416 56.474 9.57494 56.306C9.80827 56.138 9.92494 55.9327 9.92494 55.69C9.92494 55.4473 9.80827 55.2467 9.57494 55.088C9.3416 54.92 9.00094 54.794 8.55294 54.71C8.10494 54.626 7.54494 54.584 6.87294 54.584ZM1.10494 58.742H12.6689V59.918H1.10494V58.742ZM2.46294 60.8H11.2129V63.88H3.93294V65.238H2.49094V62.83H9.77094V61.906H2.46294V60.8ZM2.49094 64.916H11.5769V66.036H2.49094V64.916ZM22.4258 53.366H23.8958V66.162H22.4258V53.366ZM23.5738 58.266H25.8838V59.498H23.5738V58.266ZM14.4318 54.402H15.8878V57.664H19.0658V54.402H20.5078V63.138H14.4318V54.402ZM15.8878 58.812V61.948H19.0658V58.812H15.8878ZM26.8628 60.366H38.4548V61.556H26.8628V60.366ZM28.3468 64.706H37.2788V65.896H28.3468V64.706ZM28.3468 62.424H29.8167V65.196H28.3468V62.424ZM28.3048 53.716H36.9988V57.062H29.7748V58.616H28.3328V56.012H35.5428V54.85H28.3048V53.716ZM28.3328 58.252H37.2508V59.372H28.3328V58.252ZM43.4182 59.82H44.4262C45.2849 59.82 46.0315 59.8153 46.6662 59.806C47.3102 59.7873 47.9029 59.7547 48.4442 59.708C48.9855 59.652 49.5362 59.5727 50.0962 59.47L50.2642 60.618C49.6855 60.73 49.1162 60.814 48.5562 60.87C47.9962 60.9167 47.3849 60.9493 46.7222 60.968C46.0595 60.9867 45.2942 60.996 44.4262 60.996H43.4182V59.82ZM43.4182 54.36H49.3262V55.536H44.8742V60.226H43.4182V54.36ZM44.4122 57.062H49.0882V58.21H44.4122V57.062ZM51.4122 53.352H52.8682V62.844H51.4122V53.352ZM52.4342 57.244H54.6742V58.462H52.4342V57.244ZM44.7762 64.706H53.4002V65.896H44.7762V64.706ZM44.7762 61.976H46.2462V65.406H44.7762V61.976ZM60.7771 53.772H62.0651V54.444C62.0651 54.9293 61.9811 55.396 61.8131 55.844C61.6451 56.2827 61.4024 56.6887 61.0851 57.062C60.7771 57.4353 60.4038 57.7713 59.9651 58.07C59.5358 58.3687 59.0598 58.6207 58.5371 58.826C58.0144 59.022 57.4544 59.1667 56.8571 59.26L56.2831 58.084C56.8058 58.0093 57.2911 57.8927 57.7391 57.734C58.1964 57.566 58.6118 57.3653 58.9851 57.132C59.3584 56.8893 59.6758 56.6233 59.9371 56.334C60.2078 56.0447 60.4131 55.7413 60.5531 55.424C60.7024 55.1067 60.7771 54.78 60.7771 54.444V53.772ZM61.0571 53.772H62.3311V54.444C62.3311 54.7707 62.4011 55.0927 62.5411 55.41C62.6904 55.7273 62.9004 56.0307 63.1711 56.32C63.4418 56.6093 63.7638 56.8753 64.1371 57.118C64.5104 57.3513 64.9211 57.552 65.3691 57.72C65.8264 57.888 66.3118 58.0093 66.8251 58.084L66.2511 59.26C65.6631 59.1667 65.1078 59.0173 64.5851 58.812C64.0624 58.6067 63.5818 58.3547 63.1431 58.056C62.7138 57.7573 62.3404 57.4213 62.0231 57.048C61.7151 56.6747 61.4771 56.2687 61.3091 55.83C61.1411 55.3913 61.0571 54.9293 61.0571 54.444V53.772ZM60.7911 61.36H62.2471V66.162H60.7911V61.36ZM55.7651 60.45H67.3291V61.654H55.7651V60.45ZM71.794 60.968H73.264V63.04H71.794V60.968ZM77.17 53.366H78.64V66.162H77.17V53.366ZM78.15 58.686H80.46V59.904H78.15V58.686ZM68.7 63.852L68.504 62.648C69.26 62.648 70.086 62.6433 70.982 62.634C71.878 62.6247 72.7973 62.592 73.74 62.536C74.6827 62.48 75.588 62.3913 76.456 62.27L76.568 63.334C75.6627 63.502 74.7433 63.6233 73.81 63.698C72.8767 63.7727 71.976 63.8193 71.108 63.838C70.24 63.8473 69.4373 63.852 68.7 63.852ZM68.728 54.85H76.316V56.012H68.728V54.85ZM72.536 56.642C73.1333 56.642 73.6607 56.7447 74.118 56.95C74.5847 57.146 74.9487 57.4213 75.21 57.776C75.4713 58.1307 75.602 58.5507 75.602 59.036C75.602 59.512 75.4713 59.932 75.21 60.296C74.9487 60.6507 74.5847 60.926 74.118 61.122C73.6607 61.318 73.1333 61.416 72.536 61.416C71.9293 61.416 71.3927 61.318 70.926 61.122C70.4687 60.926 70.1093 60.6507 69.848 60.296C69.596 59.932 69.47 59.512 69.47 59.036C69.47 58.5507 69.596 58.1307 69.848 57.776C70.1093 57.4213 70.4687 57.146 70.926 56.95C71.3927 56.7447 71.9293 56.642 72.536 56.642ZM72.536 57.762C72.032 57.762 71.626 57.8787 71.318 58.112C71.01 58.336 70.856 58.644 70.856 59.036C70.856 59.428 71.01 59.736 71.318 59.96C71.626 60.184 72.032 60.296 72.536 60.296C73.04 60.296 73.446 60.184 73.754 59.96C74.062 59.736 74.216 59.428 74.216 59.036C74.216 58.644 74.062 58.336 73.754 58.112C73.446 57.8787 73.04 57.762 72.536 57.762ZM71.794 53.394H73.264V55.676H71.794V53.394ZM86.5629 59.456H88.0189V61.332H86.5629V59.456ZM81.5229 58.602H93.0869V59.778H81.5229V58.602ZM82.9929 53.758H91.6029V57.706H82.9929V53.758ZM90.1609 54.906H84.4209V56.572H90.1609V54.906ZM82.8809 60.828H91.6309V63.88H84.3509V65.252H82.9089V62.844H90.1889V61.934H82.8809V60.828ZM82.9089 64.916H91.9949V66.036H82.9089V64.916ZM106.674 53.366H108.144V60.394H106.674V53.366ZM99.8283 60.954H101.284V62.326H106.688V60.954H108.144V65.994H99.8283V60.954ZM101.284 63.46V64.818H106.688V63.46H101.284ZM104.098 55.662H106.94V56.866H104.098V55.662ZM100.612 53.842H101.816V55.116C101.816 55.9093 101.676 56.6513 101.396 57.342C101.116 58.0327 100.71 58.6347 100.178 59.148C99.6557 59.6613 99.0163 60.0533 98.2603 60.324L97.5043 59.162C98.0177 58.994 98.4657 58.7747 98.8483 58.504C99.231 58.224 99.553 57.9067 99.8143 57.552C100.076 57.188 100.272 56.8007 100.402 56.39C100.542 55.9793 100.612 55.5547 100.612 55.116V53.842ZM100.892 53.842H102.082V55.214C102.082 55.6153 102.148 56.0073 102.278 56.39C102.409 56.7727 102.6 57.1273 102.852 57.454C103.114 57.7807 103.431 58.0747 103.804 58.336C104.178 58.588 104.607 58.7887 105.092 58.938L104.336 60.086C103.608 59.834 102.988 59.47 102.474 58.994C101.961 58.5087 101.569 57.944 101.298 57.3C101.028 56.656 100.892 55.9607 100.892 55.214V53.842ZM113.911 55.676H115.101V55.844C115.101 56.4693 114.961 57.048 114.681 57.58C114.411 58.112 114.009 58.5647 113.477 58.938C112.955 59.3113 112.311 59.5867 111.545 59.764L110.943 58.616C111.578 58.476 112.115 58.2707 112.553 58C112.992 57.7293 113.328 57.4073 113.561 57.034C113.795 56.6607 113.911 56.264 113.911 55.844V55.676ZM114.191 55.676H115.381V55.844C115.381 56.236 115.493 56.6047 115.717 56.95C115.951 57.2953 116.287 57.5987 116.725 57.86C117.164 58.112 117.696 58.3033 118.321 58.434L117.733 59.568C116.977 59.4093 116.333 59.1527 115.801 58.798C115.279 58.434 114.877 58 114.597 57.496C114.327 56.992 114.191 56.4413 114.191 55.844V55.676ZM111.237 54.724H118.055V55.872H111.237V54.724ZM113.911 53.38H115.381V55.522H113.911V53.38ZM113.911 60.66H115.395V65.77H113.911V60.66ZM119.553 53.366H121.009V66.162H119.553V53.366ZM110.607 61.71L110.425 60.492C111.219 60.492 112.082 60.4873 113.015 60.478C113.958 60.4593 114.915 60.422 115.885 60.366C116.865 60.31 117.808 60.2213 118.713 60.1L118.811 61.164C117.878 61.332 116.926 61.4533 115.955 61.528C114.994 61.6027 114.056 61.654 113.141 61.682C112.236 61.7007 111.391 61.71 110.607 61.71ZM123.304 59.218H134.896V60.296H123.304V59.218ZM124.648 61.164H133.468V64.02H126.118V65.35H124.676V63.068H132.026V62.172H124.648V61.164ZM124.676 65H133.86V66.022H124.676V65ZM124.746 53.66H133.44V56.488H126.216V57.72H124.774V55.536H131.984V54.682H124.746V53.66ZM124.774 57.398H133.664V58.42H124.774V57.398ZM40.9311 74.366H42.4011V87.162H40.9311V74.366ZM42.0651 79.504H44.3751V80.722H42.0651V79.504ZM32.4051 76.34H39.9091V77.516H32.4051V76.34ZM36.2131 78.426C36.8197 78.426 37.3611 78.5567 37.8371 78.818C38.3131 79.07 38.6864 79.42 38.9571 79.868C39.2371 80.316 39.3771 80.8293 39.3771 81.408C39.3771 81.996 39.2371 82.514 38.9571 82.962C38.6864 83.41 38.3131 83.7647 37.8371 84.026C37.3611 84.278 36.8151 84.404 36.1991 84.404C35.5924 84.404 35.0511 84.278 34.5751 84.026C34.0991 83.7647 33.7211 83.41 33.4411 82.962C33.1704 82.514 33.0351 81.996 33.0351 81.408C33.0351 80.8293 33.1704 80.316 33.4411 79.868C33.7211 79.42 34.0991 79.07 34.5751 78.818C35.0511 78.5567 35.5971 78.426 36.2131 78.426ZM36.1991 79.63C35.8631 79.63 35.5597 79.7047 35.2891 79.854C35.0184 80.0033 34.8037 80.2133 34.6451 80.484C34.4957 80.7453 34.4211 81.0533 34.4211 81.408C34.4211 81.772 34.4957 82.0893 34.6451 82.36C34.8037 82.6213 35.0184 82.8267 35.2891 82.976C35.5597 83.1253 35.8631 83.2 36.1991 83.2C36.5444 83.2 36.8477 83.1253 37.1091 82.976C37.3797 82.8267 37.5897 82.6213 37.7391 82.36C37.8977 82.0893 37.9771 81.772 37.9771 81.408C37.9771 81.0533 37.8977 80.7453 37.7391 80.484C37.5897 80.2133 37.3797 80.0033 37.1091 79.854C36.8477 79.7047 36.5444 79.63 36.1991 79.63ZM35.4571 74.534H36.9271V76.83H35.4571V74.534ZM46.558 75.556H54.734V76.746H46.558V75.556ZM45.354 84.278H56.918V85.482H45.354V84.278ZM49.666 79.784H51.136V84.866H49.666V79.784ZM54.202 75.556H55.658V76.802C55.658 77.334 55.6533 77.894 55.644 78.482C55.6346 79.07 55.5973 79.7187 55.532 80.428C55.4666 81.1373 55.35 81.9353 55.182 82.822L53.712 82.654C53.9546 81.4033 54.0946 80.3067 54.132 79.364C54.1786 78.4213 54.202 77.5673 54.202 76.802V75.556ZM64.4294 82.192H65.5494V82.766C65.5494 83.354 65.4421 83.928 65.2274 84.488C65.0127 85.0387 64.6907 85.5333 64.2614 85.972C63.8414 86.4013 63.3094 86.7373 62.6654 86.98L61.9374 85.902C62.4881 85.706 62.9454 85.44 63.3094 85.104C63.6827 84.768 63.9627 84.3947 64.1494 83.984C64.3361 83.5733 64.4294 83.1673 64.4294 82.766V82.192ZM64.7794 82.192H65.8434V82.766C65.8434 83.1767 65.9227 83.592 66.0814 84.012C66.2401 84.432 66.4827 84.8147 66.8094 85.16C67.1454 85.5053 67.5701 85.7853 68.0834 86L67.4814 87.092C66.8467 86.84 66.3287 86.4853 65.9274 86.028C65.5261 85.58 65.2321 85.0713 65.0454 84.502C64.8681 83.9327 64.7794 83.354 64.7794 82.766V82.192ZM69.1194 82.192H70.1974V82.766C70.1974 83.298 70.0994 83.8487 69.9034 84.418C69.7167 84.9873 69.4274 85.51 69.0354 85.986C68.6434 86.462 68.1254 86.8307 67.4814 87.092L66.8794 86C67.3927 85.7667 67.8127 85.468 68.1394 85.104C68.4754 84.74 68.7227 84.3527 68.8814 83.942C69.0401 83.522 69.1194 83.13 69.1194 82.766V82.192ZM69.4414 82.192H70.5614V82.766C70.5614 83.1953 70.6547 83.62 70.8414 84.04C71.0281 84.4507 71.3034 84.8193 71.6674 85.146C72.0407 85.4633 72.5027 85.7153 73.0534 85.902L72.3254 86.98C71.6814 86.7467 71.1447 86.42 70.7154 86C70.2861 85.58 69.9641 85.09 69.7494 84.53C69.5441 83.97 69.4414 83.382 69.4414 82.766V82.192ZM70.4494 74.366H71.9194V81.646H70.4494V74.366ZM65.0174 75.066C65.6707 75.066 66.2541 75.1967 66.7674 75.458C67.2807 75.71 67.6821 76.0647 67.9714 76.522C68.2701 76.97 68.4194 77.4927 68.4194 78.09C68.4194 78.6873 68.2701 79.21 67.9714 79.658C67.6821 80.106 67.2807 80.4607 66.7674 80.722C66.2541 80.974 65.6707 81.1 65.0174 81.1C64.3641 81.1 63.7807 80.974 63.2674 80.722C62.7541 80.4607 62.3481 80.106 62.0494 79.658C61.7601 79.21 61.6154 78.6873 61.6154 78.09C61.6154 77.4927 61.7601 76.97 62.0494 76.522C62.3481 76.0647 62.7541 75.71 63.2674 75.458C63.7807 75.1967 64.3641 75.066 65.0174 75.066ZM65.0174 76.284C64.6441 76.284 64.3081 76.3587 64.0094 76.508C63.7107 76.6573 63.4774 76.8673 63.3094 77.138C63.1414 77.4087 63.0574 77.726 63.0574 78.09C63.0574 78.454 63.1414 78.7713 63.3094 79.042C63.4774 79.3127 63.7107 79.5227 64.0094 79.672C64.3081 79.8213 64.6441 79.896 65.0174 79.896C65.4001 79.896 65.7361 79.8213 66.0254 79.672C66.3241 79.5227 66.5574 79.3127 66.7254 79.042C66.9027 78.7713 66.9914 78.454 66.9914 78.09C66.9914 77.726 66.9027 77.4087 66.7254 77.138C66.5574 76.8673 66.3241 76.6573 66.0254 76.508C65.7361 76.3587 65.4001 76.284 65.0174 76.284ZM77.7003 75.29C78.335 75.29 78.895 75.4767 79.3803 75.85C79.8656 76.2233 80.2483 76.746 80.5283 77.418C80.8083 78.09 80.9483 78.8833 80.9483 79.798C80.9483 80.722 80.8083 81.5247 80.5283 82.206C80.2483 82.878 79.8656 83.4007 79.3803 83.774C78.895 84.138 78.335 84.32 77.7003 84.32C77.075 84.32 76.515 84.138 76.0203 83.774C75.535 83.4007 75.1523 82.878 74.8723 82.206C74.6016 81.5247 74.4663 80.722 74.4663 79.798C74.4663 78.8833 74.6016 78.09 74.8723 77.418C75.1523 76.746 75.535 76.2233 76.0203 75.85C76.515 75.4767 77.075 75.29 77.7003 75.29ZM77.7003 76.62C77.3363 76.62 77.0143 76.746 76.7343 76.998C76.4636 77.25 76.249 77.614 76.0903 78.09C75.941 78.566 75.8663 79.1353 75.8663 79.798C75.8663 80.47 75.941 81.044 76.0903 81.52C76.249 81.996 76.4636 82.3647 76.7343 82.626C77.0143 82.878 77.3363 83.004 77.7003 83.004C78.0736 83.004 78.3956 82.878 78.6663 82.626C78.9463 82.3647 79.161 81.996 79.3103 81.52C79.469 81.044 79.5483 80.47 79.5483 79.798C79.5483 79.1353 79.469 78.566 79.3103 78.09C79.161 77.614 78.9463 77.25 78.6663 76.998C78.3956 76.746 78.0736 76.62 77.7003 76.62ZM83.4123 74.352H84.8823V87.176H83.4123V74.352ZM80.4863 79.112H84.0423V80.302H80.4863V79.112ZM89.8512 80.904H91.3072V84.628H89.8512V80.904ZM94.5272 80.904H95.9972V84.628H94.5272V80.904ZM87.1352 84.376H98.7272V85.58H87.1352V84.376ZM92.9172 75.094C93.8225 75.094 94.6299 75.234 95.3392 75.514C96.0485 75.7847 96.6039 76.172 97.0052 76.676C97.4159 77.1707 97.6212 77.7587 97.6212 78.44C97.6212 79.1213 97.4159 79.714 97.0052 80.218C96.6039 80.7127 96.0485 81.1 95.3392 81.38C94.6299 81.6507 93.8225 81.786 92.9172 81.786C92.0119 81.786 91.1999 81.6507 90.4812 81.38C89.7719 81.1 89.2119 80.7127 88.8012 80.218C88.3999 79.714 88.1992 79.1213 88.1992 78.44C88.1992 77.7587 88.3999 77.1707 88.8012 76.676C89.2119 76.172 89.7719 75.7847 90.4812 75.514C91.1999 75.234 92.0119 75.094 92.9172 75.094ZM92.9172 76.242C92.2732 76.242 91.7039 76.3307 91.2092 76.508C90.7145 76.6853 90.3272 76.942 90.0472 77.278C89.7765 77.6047 89.6412 77.992 89.6412 78.44C89.6412 78.888 89.7765 79.28 90.0472 79.616C90.3272 79.9427 90.7145 80.1993 91.2092 80.386C91.7039 80.5633 92.2732 80.652 92.9172 80.652C93.5612 80.652 94.1259 80.5633 94.6112 80.386C95.1059 80.1993 95.4932 79.9427 95.7732 79.616C96.0532 79.28 96.1932 78.888 96.1932 78.44C96.1932 77.992 96.0532 77.6047 95.7732 77.278C95.4932 76.942 95.1059 76.6853 94.6112 76.508C94.1259 76.3307 93.5612 76.242 92.9172 76.242ZM101.232 82.71L101.008 77.124L100.952 75.444H102.59L102.548 77.124L102.31 82.71H101.232ZM101.764 86.196C101.465 86.196 101.213 86.0887 101.008 85.874C100.803 85.65 100.7 85.3747 100.7 85.048C100.7 84.712 100.803 84.4413 101.008 84.236C101.213 84.0213 101.465 83.914 101.764 83.914C102.081 83.914 102.343 84.0213 102.548 84.236C102.753 84.4413 102.856 84.712 102.856 85.048C102.856 85.3747 102.753 85.65 102.548 85.874C102.343 86.0887 102.081 86.196 101.764 86.196Z" fill="#66696A"/>
</svg>
