<svg width="70" height="20" viewBox="0 0 70 20" fill="none" xmlns="http://www.w3.org/2000/svg">
<g id="Group 956">
<path id="Wifi" fill-rule="evenodd" clip-rule="evenodd" d="M32.2315 6.92048C34.4181 6.92057 36.521 7.63859 38.1057 8.92615C38.225 9.02555 38.4157 9.0243 38.5333 8.92334L39.6739 7.93948C39.7335 7.88827 39.7666 7.81891 39.7661 7.74674C39.7656 7.67457 39.7315 7.60554 39.6713 7.55493C35.512 4.14836 28.9503 4.14836 24.791 7.55493C24.7308 7.6055 24.6966 7.67451 24.6961 7.74668C24.6955 7.81885 24.7286 7.88823 24.7881 7.93948L25.9291 8.92334C26.0466 9.02445 26.2374 9.0257 26.3567 8.92615C27.9416 7.6385 30.0447 6.92048 32.2315 6.92048ZM32.7322 9.88137C33.9617 9.88131 35.1473 10.2549 36.0586 10.9295C36.1819 11.0253 36.376 11.0232 36.4962 10.9249L37.6622 9.96172C37.7236 9.9112 37.7577 9.84267 37.7568 9.77145C37.7559 9.70024 37.7201 9.63229 37.6575 9.5828C34.8823 7.4724 30.5845 7.4724 27.8093 9.5828C27.7467 9.63229 27.7109 9.70027 27.7101 9.77151C27.7092 9.84275 27.7434 9.91128 27.805 9.96172L28.9706 10.9249C29.0908 11.0232 29.285 11.0253 29.4082 10.9295C30.319 10.2553 31.5036 9.88179 32.7322 9.88137ZM34.7427 12.9207C34.7446 12.9976 34.7077 13.0718 34.6406 13.1257L32.4719 14.9177C32.4083 14.9704 32.3216 15 32.2312 15C32.1407 15 32.0541 14.9704 31.9905 14.9177L29.8214 13.1257C29.7544 13.0718 29.7175 12.9976 29.7195 12.9207C29.7215 12.8438 29.7621 12.7709 29.8319 12.7194C31.2169 11.7602 33.2455 11.7602 34.6305 12.7194C34.7002 12.771 34.7408 12.8438 34.7427 12.9207Z" fill="black"/>
<path id="Cellular Connection" fill-rule="evenodd" clip-rule="evenodd" d="M19.6729 5H18.6682C18.1133 5 17.6635 5.41973 17.6635 5.9375V14.0625C17.6635 14.5803 18.1133 15 18.6682 15H19.6729C20.2277 15 20.6776 14.5803 20.6776 14.0625V5.9375C20.6776 5.41973 20.2277 5 19.6729 5ZM14.6495 7H15.6542C16.209 7 16.6588 7.42981 16.6588 7.96V14.04C16.6588 14.5702 16.209 15 15.6542 15H14.6495C14.0946 15 13.6448 14.5702 13.6448 14.04V7.96C13.6448 7.42981 14.0946 7 14.6495 7ZM10.6308 9H9.62614C9.07127 9 8.62146 9.44772 8.62146 10V14C8.62146 14.5523 9.07127 15 9.62614 15H10.6308C11.1857 15 11.6355 14.5523 11.6355 14V10C11.6355 9.44772 11.1857 9 10.6308 9ZM6.61212 11H5.60745C5.05259 11 4.60278 11.4477 4.60278 12V14C4.60278 14.5523 5.05259 15 5.60745 15H6.61212C7.16699 15 7.61679 14.5523 7.61679 14V12C7.61679 11.4477 7.16699 11 6.61212 11Z" fill="black"/>
<g id="Battery">
<rect id="Border" opacity="0.35" x="44.2657" y="5.48077" width="20.1366" height="10.0385" rx="2.08333" stroke="black" stroke-width="0.961538"/>
<path id="Cap" opacity="0.4" d="M65.8877 9V13C66.4965 12.6612 66.8924 11.8731 66.8924 11C66.8924 10.1269 66.4965 9.33878 65.8877 9Z" fill="black"/>
<rect id="Capacity" x="45.7942" y="7" width="17.0794" height="7" rx="1.28205" fill="black"/>
</g>
</g>
</svg>
