<svg width="32" height="32" viewBox="0 0 32 32" fill="none" xmlns="http://www.w3.org/2000/svg">
<rect width="32" height="32" rx="8" fill="#EF6038"/>
<path d="M24.7368 11.6743L13.7368 22.6743C13.6729 22.7382 13.5971 22.7889 13.5137 22.8235C13.4302 22.8581 13.3407 22.8759 13.2504 22.8759C13.16 22.8759 13.0706 22.8581 12.9871 22.8235C12.9037 22.7889 12.8278 22.7382 12.764 22.6743L7.95148 17.8618C7.82247 17.7328 7.75 17.5578 7.75 17.3754C7.75 17.1929 7.82247 17.018 7.95148 16.889C8.08048 16.76 8.25544 16.6875 8.43788 16.6875C8.62032 16.6875 8.79529 16.76 8.92429 16.889L13.2504 21.2159L23.764 10.7015C23.893 10.5725 24.0679 10.5 24.2504 10.5C24.4328 10.5 24.6078 10.5725 24.7368 10.7015C24.8658 10.8305 24.9383 11.0054 24.9383 11.1879C24.9383 11.3703 24.8658 11.5453 24.7368 11.6743Z" fill="white"/>
</svg>
