<svg width="36" height="36" viewBox="0 0 36 36" fill="none" xmlns="http://www.w3.org/2000/svg">
<g id="Trash">
<path id="Vector" d="M30.375 6.75H24.75V5.625C24.75 4.72989 24.3944 3.87145 23.7615 3.23851C23.1286 2.60558 22.2701 2.25 21.375 2.25H14.625C13.7299 2.25 12.8714 2.60558 12.2385 3.23851C11.6056 3.87145 11.25 4.72989 11.25 5.625V6.75H5.625C5.32663 6.75 5.04048 6.86853 4.82951 7.0795C4.61853 7.29048 4.5 7.57663 4.5 7.875C4.5 8.17337 4.61853 8.45952 4.82951 8.6705C5.04048 8.88147 5.32663 9 5.625 9H6.75V29.25C6.75 29.8467 6.98705 30.419 7.40901 30.841C7.83097 31.2629 8.40326 31.5 9 31.5H27C27.5967 31.5 28.169 31.2629 28.591 30.841C29.0129 30.419 29.25 29.8467 29.25 29.25V9H30.375C30.6734 9 30.9595 8.88147 31.1705 8.6705C31.3815 8.45952 31.5 8.17337 31.5 7.875C31.5 7.57663 31.3815 7.29048 31.1705 7.0795C30.9595 6.86853 30.6734 6.75 30.375 6.75ZM15.75 23.625C15.75 23.9234 15.6315 24.2095 15.4205 24.4205C15.2095 24.6315 14.9234 24.75 14.625 24.75C14.3266 24.75 14.0405 24.6315 13.8295 24.4205C13.6185 24.2095 13.5 23.9234 13.5 23.625V14.625C13.5 14.3266 13.6185 14.0405 13.8295 13.8295C14.0405 13.6185 14.3266 13.5 14.625 13.5C14.9234 13.5 15.2095 13.6185 15.4205 13.8295C15.6315 14.0405 15.75 14.3266 15.75 14.625V23.625ZM22.5 23.625C22.5 23.9234 22.3815 24.2095 22.1705 24.4205C21.9595 24.6315 21.6734 24.75 21.375 24.75C21.0766 24.75 20.7905 24.6315 20.5795 24.4205C20.3685 24.2095 20.25 23.9234 20.25 23.625V14.625C20.25 14.3266 20.3685 14.0405 20.5795 13.8295C20.7905 13.6185 21.0766 13.5 21.375 13.5C21.6734 13.5 21.9595 13.6185 22.1705 13.8295C22.3815 14.0405 22.5 14.3266 22.5 14.625V23.625ZM22.5 6.75H13.5V5.625C13.5 5.32663 13.6185 5.04048 13.8295 4.8295C14.0405 4.61853 14.3266 4.5 14.625 4.5H21.375C21.6734 4.5 21.9595 4.61853 22.1705 4.8295C22.3815 5.04048 22.5 5.32663 22.5 5.625V6.75Z" fill="black"/>
</g>
</svg>
