<svg width="32" height="32" viewBox="0 0 32 32" fill="none" xmlns="http://www.w3.org/2000/svg">
<g id="Users">
<path id="Vector" d="M20.5587 24.4529C20.6571 24.6038 20.7129 24.7784 20.7202 24.9584C20.7276 25.1384 20.6862 25.317 20.6004 25.4754C20.5146 25.6338 20.3876 25.7661 20.2328 25.8582C20.0781 25.9504 19.9013 25.9991 19.7212 25.9991H1.27869C1.09856 25.9991 0.921776 25.9504 0.767024 25.8582C0.612272 25.7661 0.485293 25.6338 0.399504 25.4754C0.313715 25.317 0.272302 25.1384 0.279639 24.9584C0.286975 24.7784 0.34279 24.6038 0.441187 24.4529C1.84882 22.2862 3.9193 20.6327 6.34369 19.7391C5.00343 18.8469 3.9859 17.547 3.44156 16.0317C2.89722 14.5164 2.85496 12.8662 3.32105 11.325C3.78714 9.78386 4.73681 8.4336 6.02965 7.47392C7.32249 6.51424 8.88984 5.99609 10.4999 5.99609C12.11 5.99609 13.6774 6.51424 14.9702 7.47392C16.2631 8.4336 17.2127 9.78386 17.6788 11.325C18.1449 12.8662 18.1027 14.5164 17.5583 16.0317C17.014 17.547 15.9964 18.8469 14.6562 19.7391C17.0806 20.6327 19.1511 22.2862 20.5587 24.4529ZM31.5474 24.4341C30.1394 22.2765 28.0736 20.6302 25.6562 19.7391C27.2384 18.6733 28.355 17.0446 28.7788 15.1846C29.2025 13.3245 28.9015 11.3729 27.937 9.72692C26.9725 8.08098 25.417 6.86443 23.5871 6.32492C21.7573 5.78541 19.7906 5.96348 18.0874 6.82289C18.0223 6.85651 17.9654 6.90405 17.9207 6.96212C17.8759 7.0202 17.8445 7.0874 17.8287 7.15895C17.8128 7.23051 17.8129 7.30468 17.8289 7.37622C17.8449 7.44775 17.8764 7.51489 17.9212 7.57289C19.1876 9.15265 19.915 11.0964 19.9966 13.1195C20.0783 15.1426 19.51 17.1387 18.3749 18.8154C18.3016 18.925 18.2745 19.0591 18.2995 19.1885C18.3246 19.318 18.3997 19.4323 18.5087 19.5066C19.9886 20.5395 21.2554 21.8479 22.2399 23.3604C22.637 23.9685 22.7992 24.7003 22.6962 25.4191C22.6846 25.4906 22.6887 25.5638 22.7082 25.6336C22.7276 25.7034 22.7621 25.7681 22.809 25.8232C22.856 25.8784 22.9144 25.9227 22.9801 25.9531C23.0459 25.9834 23.1175 25.9992 23.1899 25.9991H30.7274C30.9476 25.9992 31.1617 25.9266 31.3364 25.7926C31.5111 25.6585 31.6367 25.4706 31.6937 25.2579C31.7285 25.118 31.7334 24.9724 31.7082 24.8305C31.683 24.6885 31.6282 24.5535 31.5474 24.4341Z" fill="#262829"/>
</g>
</svg>
