<svg width="12" height="12" viewBox="0 0 12 12" fill="none" xmlns="http://www.w3.org/2000/svg">
<g id="Users">
<path id="Vector" d="M7.70945 9.16934C7.74635 9.22593 7.76728 9.29142 7.77003 9.35891C7.77278 9.42641 7.75725 9.49339 7.72508 9.55279C7.69291 9.61218 7.64529 9.66178 7.58726 9.69636C7.52923 9.73093 7.46293 9.74918 7.39538 9.74919H0.479446C0.411898 9.74918 0.345605 9.73093 0.287573 9.69636C0.229541 9.66178 0.181924 9.61218 0.149753 9.55279C0.117582 9.49339 0.102052 9.42641 0.104803 9.35891C0.107555 9.29142 0.128485 9.22593 0.165384 9.16934C0.693246 8.35683 1.46968 7.73677 2.37882 7.40169C1.87623 7.06709 1.49465 6.57963 1.29052 6.0114C1.0864 5.44317 1.07055 4.82433 1.24533 4.24639C1.42012 3.66846 1.77624 3.16211 2.26106 2.80223C2.74587 2.44235 3.33363 2.24805 3.93742 2.24805C4.5412 2.24805 5.12896 2.44235 5.61377 2.80223C6.09859 3.16211 6.45472 3.66846 6.6295 4.24639C6.80428 4.82433 6.78844 5.44317 6.58431 6.0114C6.38018 6.57963 5.9986 7.06709 5.49601 7.40169C6.40515 7.73677 7.18158 8.35683 7.70945 9.16934ZM11.8302 9.16231C11.3022 8.35322 10.5275 7.73583 9.62101 7.40169C10.2143 7.00201 10.6331 6.39125 10.792 5.69372C10.9509 4.9962 10.838 4.26434 10.4763 3.64711C10.1146 3.02988 9.5313 2.57367 8.84511 2.37136C8.15892 2.16904 7.42142 2.23582 6.78273 2.55809C6.75831 2.5707 6.73695 2.58853 6.72019 2.61031C6.70342 2.63209 6.69164 2.65729 6.68569 2.68412C6.67974 2.71095 6.67977 2.73877 6.68576 2.76559C6.69176 2.79242 6.70358 2.8176 6.72038 2.83934C7.19531 3.43175 7.46805 4.16068 7.49867 4.91933C7.52929 5.67799 7.31618 6.42652 6.89054 7.05528C6.86303 7.09637 6.85286 7.14667 6.86226 7.19522C6.87165 7.24377 6.89984 7.28664 6.9407 7.3145C7.49565 7.70182 7.97072 8.19249 8.33992 8.75966C8.48881 8.98768 8.54963 9.26211 8.51101 9.53169C8.50666 9.5585 8.50819 9.58595 8.5155 9.61211C8.52281 9.63828 8.53571 9.66254 8.55332 9.68323C8.57093 9.70392 8.59283 9.72053 8.61749 9.73192C8.64215 9.74331 8.669 9.7492 8.69617 9.74919H11.5227C11.6053 9.74921 11.6856 9.72198 11.7511 9.67172C11.8166 9.62146 11.8637 9.55098 11.8851 9.47122C11.8981 9.41876 11.9 9.36415 11.8905 9.31093C11.8811 9.25771 11.8605 9.20708 11.8302 9.16231Z" fill="#7D7F82"/>
</g>
</svg>
